<?xml version="1.0" encoding="UTF-8" standalone="no"?>
<!-- Generator: Adobe Illustrator 18.1.1, SVG Export Plug-In . SVG Version: 6.00 Build 0)  -->

<svg
   xmlns:dc="http://purl.org/dc/elements/1.1/"
   xmlns:cc="http://creativecommons.org/ns#"
   xmlns:rdf="http://www.w3.org/1999/02/22-rdf-syntax-ns#"
   xmlns:svg="http://www.w3.org/2000/svg"
   xmlns="http://www.w3.org/2000/svg"
   xmlns:sodipodi="http://sodipodi.sourceforge.net/DTD/sodipodi-0.dtd"
   xmlns:inkscape="http://www.inkscape.org/namespaces/inkscape"
   version="1.1"
   id="Capa_1"
   x="0px"
   y="0px"
   viewBox="0 0 1.2273162 14.862"
   xml:space="preserve"
   width="27.587404"
   height="18"
   inkscape:version="0.91 r13725"
   sodipodi:docname="icon-explosion.svg"><metadata
     id="metadata55"><rdf:RDF><cc:Work
         rdf:about=""><dc:format>image/svg+xml</dc:format><dc:type
           rdf:resource="http://purl.org/dc/dcmitype/StillImage" /><dc:title></dc:title></cc:Work></rdf:RDF></metadata><defs
     id="defs53" /><sodipodi:namedview
     pagecolor="#ffffff"
     bordercolor="#666666"
     borderopacity="1"
     objecttolerance="10"
     gridtolerance="10"
     guidetolerance="10"
     inkscape:pageopacity="0"
     inkscape:pageshadow="2"
     inkscape:window-width="1440"
     inkscape:window-height="837"
     id="namedview51"
     showgrid="false"
     fit-margin-top="0"
     fit-margin-left="0"
     fit-margin-right="0"
     fit-margin-bottom="0"
     inkscape:zoom="0.921875"
     inkscape:cx="316.31451"
     inkscape:cy="96.939748"
     inkscape:window-x="-8"
     inkscape:window-y="-8"
     inkscape:window-maximized="1"
     inkscape:current-layer="Capa_1" /><g
     id="g3"
     transform="translate(-10.775341,-3.958)"><g
       id="g5"><polygon
         points="3.59,16.622 7.713,16.021 6.967,11.542 10.773,13.566 12.438,10.193 14.103,13.568 17.903,11.593 17.122,16.017 21.285,16.622 19.196,18.66 20.19,18.66 22.778,16.137 17.931,15.433 18.83,10.328 14.412,12.625 12.438,8.625 10.468,12.616 6.05,10.269 6.912,15.437 2.098,16.137 4.685,18.66 5.68,18.66 "
         id="polygon7"
         style="fill:#d94100" /><polygon
         points="8.102,18.012 10.121,17.718 9.748,15.481 11.631,16.483 12.427,14.87 13.222,16.479 15.095,15.507 14.704,17.714 16.752,18.012 16.088,18.66 18.076,18.66 19.737,17.042 16.322,16.545 16.95,12.977 13.84,14.594 12.427,11.732 11.02,14.583 7.917,12.935 8.518,16.548 5.119,17.042 6.777,18.66 8.766,18.66 "
         id="polygon9"
         style="fill:#d94100" /><path
         d="m 12.438,17.909 c -0.503,0 -0.91,0.408 -0.91,0.911 l 1.822,0 c 0,-0.504 -0.408,-0.911 -0.912,-0.911 z"
         id="path11"
         inkscape:connector-curvature="0"
         style="fill:#d94100" /><polygon
         points="14.888,10.515 15.382,10.72 17.915,3.958 "
         id="polygon13"
         style="fill:#d94100" /><polygon
         points="0,9.958 5.348,14.809 5.694,14.399 "
         id="polygon15"
         style="fill:#d94100" /><polygon
         points="19.072,14.083 19.453,14.458 21.633,11.866 "
         id="polygon17"
         style="fill:#d94100" /><polygon
         points="8.866,7.43 9.801,10.688 10.303,10.5 "
         id="polygon19"
         style="fill:#d94100" /></g></g></svg>