<?xml version="1.0" encoding="UTF-8" standalone="no"?>
<!-- Created with Inkscape (http://www.inkscape.org/) -->

<svg
   xmlns:dc="http://purl.org/dc/elements/1.1/"
   xmlns:cc="http://creativecommons.org/ns#"
   xmlns:rdf="http://www.w3.org/1999/02/22-rdf-syntax-ns#"
   xmlns:svg="http://www.w3.org/2000/svg"
   xmlns="http://www.w3.org/2000/svg"
   xmlns:sodipodi="http://sodipodi.sourceforge.net/DTD/sodipodi-0.dtd"
   xmlns:inkscape="http://www.inkscape.org/namespaces/inkscape"
   width="182.50412mm"
   height="232.40363mm"
   viewBox="0 0 182.50412 232.40363"
   version="1.1"
   id="svg4497"
   inkscape:version="0.92.1 r15371"
   sodipodi:docname="chico.svg">
  <defs
     id="defs4491" />
  <sodipodi:namedview
     id="base"
     pagecolor="#ffffff"
     bordercolor="#666666"
     borderopacity="1.0"
     inkscape:pageopacity="0.0"
     inkscape:pageshadow="2"
     inkscape:zoom="0.35"
     inkscape:cx="-145.93489"
     inkscape:cy="315.13097"
     inkscape:document-units="mm"
     inkscape:current-layer="layer1"
     showgrid="false"
     inkscape:snap-global="false"
     inkscape:window-width="1366"
     inkscape:window-height="705"
     inkscape:window-x="-8"
     inkscape:window-y="-8"
     inkscape:window-maximized="1" />
  <metadata
     id="metadata4494">
    <rdf:RDF>
      <cc:Work
         rdf:about="">
        <dc:format>image/svg+xml</dc:format>
        <dc:type
           rdf:resource="http://purl.org/dc/dcmitype/StillImage" />
        <dc:title></dc:title>
      </cc:Work>
    </rdf:RDF>
  </metadata>
  <g
     inkscape:label="Layer 1"
     inkscape:groupmode="layer"
     id="layer1"
     transform="translate(-16.311346,-48.209466)">
    <path
       style="fill:none;stroke:#000000;stroke-width:2;stroke-linecap:butt;stroke-linejoin:miter;stroke-miterlimit:4;stroke-dasharray:none;stroke-opacity:1"
       d="m 43.089286,262.22619 c -2.015873,0 0.251984,0.25198 -0.755953,-0.75595 -0.398422,-0.39842 -0.977365,-0.57777 -1.511904,-0.75595 -0.239054,-0.0797 -0.5169,0.0797 -0.755953,0 -0.534539,-0.17818 -0.977366,-0.57778 -1.511905,-0.75596 -0.239053,-0.0797 -0.53057,0.11269 -0.755952,0 -0.318737,-0.15937 -0.437215,-0.59658 -0.755952,-0.75595 -0.225382,-0.11269 -0.577773,0.17818 -0.755953,0 -0.178179,-0.17818 0.17818,-0.57777 0,-0.75595 -0.178179,-0.17818 -0.503968,0 -0.755952,0 -1.511905,0 -3.02381,0 -4.535714,0 -1.511905,0 -3.02381,0 -4.535715,0 -0.503968,0 -1.022983,-0.12223 -1.511904,0 -0.546631,0.13666 -0.977366,0.57777 -1.511905,0.75595 -0.478106,0.15937 -1.061142,-0.22538 -1.511905,0 -3.146093,1.57301 0.80814,-0.0522 -0.755952,1.51191 -0.17818,0.17818 -0.577773,-0.17818 -0.755953,0 -0.178179,0.17818 0.17818,0.57777 0,0.75595 -0.178179,0.17818 -0.577772,-0.17818 -0.755952,0 -0.17818,0.17818 0.17818,0.57777 0,0.75595 -1.564095,1.56409 0.06114,-2.39014 -1.511905,0.75595 -0.112691,0.22538 0.17818,0.57778 0,0.75596 -0.17818,0.17817 -0.577773,-0.17818 -0.755952,0 -0.17818,0.17817 0,0.50396 0,0.75595 0,0.25198 -0.112691,0.53057 0,0.75595 0.159369,0.31874 0.596583,0.43721 0.755952,0.75595 0.930937,1.86188 -2.194329,-0.68242 0.755953,2.26786 0.398421,0.39842 1.113482,0.35753 1.511904,0.75595 0.398422,0.39842 0.357531,1.11348 0.755953,1.51191 0.398422,0.39842 1.061142,0.41788 1.511904,0.75595 0.570175,0.42763 0.900754,1.14521 1.511905,1.5119 0.683288,0.40998 1.584569,0.34598 2.267857,0.75596 0.611152,0.36669 0.900754,1.14521 1.511905,1.5119 0.683288,0.40997 1.528006,0.46001 2.267857,0.75595 0.523154,0.20926 0.988751,0.54669 1.511905,0.75596 2.219553,0.88782 4.632326,1.24816 6.803572,2.26786 0,0.25196 -0.251986,0.75594 0,0.75594 0.251984,0 -0.07968,-0.51689 0,-0.75594 1.995845,-5.98755 -0.871627,6.62599 1.511903,-5.29167 1.747832,-5.82612 1.361088,-2.41961 5.291667,-8.31548 3.51949,-5.27924 4.387935,-8.81282 7.559524,-14.3631 1.63005,-2.85259 3.686373,-5.44888 5.291667,-8.31547 1.927137,-3.44132 3.320674,-7.16695 5.291666,-10.58334 2.667709,-4.62403 8.268287,-12.02445 11.339285,-16.63095 3.409857,-5.11479 3.836622,-6.25308 6.803572,-11.33929 1.879849,-3.22259 3.766855,-6.41222 5.291667,-9.82738 0.755953,1.51191 1.330214,3.12925 2.267858,4.53572 0.593017,0.88953 1.511905,1.51191 2.267857,2.26786 0.755952,0.75595 1.511905,1.5119 2.267857,2.26785 1.511905,1.51191 2.926588,3.12773 4.535715,4.53572 0.948186,0.82966 2.13291,1.37696 3.02381,2.26786 0.64244,0.64243 0.98382,1.52854 1.5119,2.26785 0.73232,1.02524 1.44792,2.06721 2.26786,3.02381 0.69575,0.81171 1.70125,1.36128 2.26786,2.26786 0.71919,1.15071 0.96078,2.53974 1.5119,3.77976 0.45768,1.02978 1.15555,1.95473 1.51191,3.02381 0.40631,1.21894 0.47722,2.52549 0.75595,3.77976 0.22538,1.01422 0.47053,2.02483 0.75595,3.02381 0.21891,0.76619 0.62495,1.48186 0.75595,2.26786 0.12428,0.74567 -0.14825,1.52658 0,2.26786 0.22101,1.10502 1.15555,1.95473 1.51191,3.02381 0.0981,0.29416 -0.11731,2.15054 0,2.26785 0.17818,0.17818 0.57777,-0.17818 0.75595,0 7.2e-4,7.3e-4 -10e-4,2.26443 0,2.26786 0.22538,0.67615 1.28653,0.83576 1.51191,1.51191 0.15937,0.4781 -0.0988,1.01772 0,1.5119 0.15627,0.78137 0.50396,1.51191 0.75595,2.26786 0.25198,0.75595 0.39959,1.55514 0.75595,2.26785 0.15937,0.31874 0.64326,0.41788 0.75595,0.75596 0.15937,0.4781 -0.12223,1.02298 0,1.5119 0.13666,0.54663 0.57778,0.97737 0.75596,1.51191 0.0797,0.23905 -0.11269,0.53057 0,0.75595 0.49172,0.98346 1.02017,0.52845 1.5119,1.5119 0.11269,0.22539 -0.17818,0.57778 0,0.75596 0.25492,0.25492 1.25698,-0.25493 1.51191,0 0.35636,0.35636 -0.35636,1.15554 0,1.5119 0.17818,0.17818 0.57777,-0.17818 0.75595,0 0.17818,0.17818 -0.11269,0.53057 0,0.75595 0.15937,0.31874 0.59658,0.43722 0.75595,0.75596 0.22538,0.45076 -0.22538,1.06114 0,1.5119 0.15937,0.31874 0.59658,0.43722 0.75595,0.75595 0.11269,0.22538 -0.17818,0.57778 0,0.75596 0.17818,0.17817 0.57778,-0.17818 0.75596,0 0.37797,0.37797 -0.37798,1.88988 0,2.26785 0.17817,0.17818 0.57777,-0.17818 0.75595,0 0.1819,0.18191 -0.18191,2.84191 0,3.02381 0.17818,0.17818 0.57777,-0.17818 0.75595,0 0.37798,0.37798 -0.37798,1.88988 0,2.26786 0.17818,0.17818 0.57777,-0.17818 0.75595,0 0.17818,0.17818 -0.17818,0.57777 0,0.75595 1.00794,1.00794 0.75595,-1.25992 0.75595,0.75595 3.52778,0 7.05556,0 10.58334,0 0.50397,0 1.01772,0.0988 1.5119,0 0.87811,-0.17562 2.91582,-0.93594 3.77976,-1.5119 0.29651,-0.19767 0.45945,-0.55828 0.75596,-0.75595 0.6813,-1.50082 2.09454,-0.29132 3.02381,-0.75596 0.22538,-0.11269 -0.17818,-0.57777 0,-0.75595 1.83606,-1.83606 1.11005,0.2248 2.26785,-1.5119 0.31255,-0.46882 0.50397,-1.00794 0.75596,-1.51191 0.50396,-0.50397 1.08427,-0.94173 1.5119,-1.5119 0.33807,-0.45077 0.41788,-1.06114 0.75595,-1.51191 0.98151,-1.30867 2.88534,-2.43812 3.77977,-3.77976 0.21946,-0.32919 -0.19952,-1.86882 0,-2.26786 0.15936,-0.31873 0.59658,-0.43721 0.75595,-0.75595 0.13669,-0.27338 0,-3.25397 0,-3.77976 0,-0.25198 0.17818,-0.57777 0,-0.75595 -0.17818,-0.17818 -0.50397,0 -0.75595,0 -1.76389,0 -3.52778,0 -5.29167,0 -2.51984,0 -5.03968,0 -7.55953,0 -0.75595,0 -1.59171,-0.33808 -2.26785,0 -0.63748,0.31873 -0.91889,1.11656 -1.51191,1.5119 -0.20966,0.13978 -0.5169,-0.0797 -0.75595,0 -0.53454,0.17818 -1.04308,0.44341 -1.5119,0.75595 -2.50718,2.50718 0.71271,-0.35636 -1.51191,0.75596 -0.31874,0.15937 -0.43721,0.59658 -0.75595,0.75595 -0.45076,0.22538 -1.06114,-0.22538 -1.51191,0 -0.31873,0.15937 -0.43721,0.59658 -0.75595,0.75595 -0.22538,0.11269 -0.5169,-0.0797 -0.75595,0 -0.53454,0.17818 -0.97737,0.57777 -1.51191,0.75595 -0.41677,0.13893 -2.86218,-0.16162 -3.02381,0 -1.00793,1.00794 1.25993,0.75596 -0.75595,0.75596 -0.34045,0 -2.03779,-0.11503 -2.26785,0 -0.31874,0.15936 -0.50397,1.00793 -0.75596,0.75595 -0.25198,-0.25199 1.11231,-0.75595 0.75596,-0.75595 -3.68722,0 0.41133,1.5119 -2.26786,1.5119"
       id="path4515"
       inkscape:connector-curvature="0" />
    <path
       style="fill:none;stroke:#000000;stroke-width:2;stroke-linecap:butt;stroke-linejoin:miter;stroke-miterlimit:4;stroke-dasharray:none;stroke-opacity:1"
       d="m 86.934523,194.19047 c -0.251984,-0.50397 -0.67627,-0.95411 -0.755952,-1.5119 -0.178181,-1.24726 0,-2.51984 0,-3.77976 0,-1.25992 0,-2.51984 0,-3.77977 0,-6.55158 0,-13.10317 0,-19.65476 0,-2.26785 0.237408,-4.54817 0,-6.80357 -2.905889,-14.52944 -0.728509,-1.07279 -1.511905,-13.60714 -0.126725,-2.02761 -0.58724,-4.02307 -0.755952,-6.04762 -0.08371,-1.00446 0,-2.01587 0,-3.02381 0,-1.5119 0,-3.02381 0,-4.53571 0,-0.89701 -0.146735,-5.31396 0,-6.04762 0.22883,-1.14415 0.791705,-1.54766 1.511903,-2.26786"
       id="path4517"
       inkscape:connector-curvature="0" />
    <path
       style="fill:none;stroke:#000000;stroke-width:2;stroke-linecap:butt;stroke-linejoin:miter;stroke-miterlimit:4;stroke-dasharray:none;stroke-opacity:1"
       d="m 98.273808,87.601188 c -1.695328,-0.313123 -2.932097,-1.733317 -4.535715,-2.267854 -0.478105,-0.15937 -1.007936,0 -1.511903,0 -1.511906,0 -3.023809,0 -4.535715,0 -0.503968,0 -1.007936,0 -1.511904,0 -0.50397,0 -1.022985,-0.122233 -1.511905,0 -0.54663,0.136657 -0.988751,0.54669 -1.511906,0.755951 -1.479701,0.591881 -3.110275,0.799185 -4.535713,1.511903 -0.318738,0.15937 -0.459443,0.558282 -0.755954,0.755955 -0.46882,0.312547 -1.06114,0.41788 -1.511903,0.755951 -0.570175,0.42763 -0.900753,1.145215 -1.511906,1.511906 -0.683286,0.409972 -1.584568,0.345977 -2.267857,0.755952 -0.611151,0.366691 -0.918885,1.11656 -1.511904,1.511903 -0.209663,0.139777 -0.54629,-0.139774 -0.755951,0 -0.593019,0.395346 -1.007938,1.007938 -1.511906,1.511906 -0.251984,0.251984 -0.41788,0.64326 -0.755952,0.755952 -0.478107,0.159369 -1.061143,-0.225381 -1.511906,0 -0.22538,0.112691 0.112692,0.530571 0,0.755954 -2.507178,2.507178 0.35636,-0.712722 -0.755951,1.511903 -0.318739,0.637476 -1.286524,0.835761 -1.511906,1.511906 -0.159369,0.478105 0.225382,1.061144 0,1.511904 -0.112689,0.22538 -0.503968,0 -0.755952,0 -0.251984,0.25198 -0.643263,0.41788 -0.755951,0.75595 -0.15937,0.47811 0.22538,1.06114 0,1.51191 -0.112692,0.22538 -0.643263,-0.22538 -0.755955,0 -0.755951,1.5119 0.377979,1.13393 0,2.26785 -0.178178,0.53454 -0.57777,0.97737 -0.755951,1.51191 -0.07969,0.23905 0,0.50397 0,0.75595 0,1.5119 0,3.02381 0,4.53572 0,0.75595 -0.239054,1.55069 0,2.26785 0.112691,0.33808 0.558281,0.45945 0.755951,0.75596 0.46037,0.69055 0.645269,1.83453 1.511906,2.26785 0.225383,0.11269 0.530572,-0.11269 0.755952,0 2.305322,1.15266 -1.382594,0.59929 2.267857,1.51191 0.488921,0.12223 1.022985,-0.12223 1.511906,0 3.509547,1.75477 -0.435123,0.0642 3.023809,0.75595 1.453618,0.29072 3.082097,1.22118 4.535715,1.5119 0.988362,0.19768 2.045968,-0.24446 3.023809,0 0.54663,0.13666 0.965274,0.6193 1.511904,0.75596 0.488921,0.12223 1.017725,-0.0988 1.511905,0 0.781371,0.15627 1.494806,0.56268 2.267858,0.75595 0.488921,0.12223 1.033798,-0.15937 1.511903,0 0.534541,0.17818 0.977366,0.57777 1.511906,0.75595 0.239054,0.0797 0.530572,-0.11269 0.755952,0 0.318738,0.15937 0.437216,0.59658 0.755951,0.75595 0.230063,0.11503 1.927411,0 2.267858,0 0.755954,0 1.511906,0 2.267857,0 0.251984,0 0.755952,-0.25198 0.755952,0 0,0.25199 -1.007936,0 -0.755952,0 0.755952,0 1.511906,0 2.267858,0 0.251984,0 0.577773,0.17818 0.755951,0 0.251998,-0.25199 -0.251994,-1.25991 0,-1.5119 0.178181,-0.17818 0.530572,0.11269 0.755955,0 0.318735,-0.15937 0.437213,-0.59659 0.755951,-0.75595 0.22538,-0.1127 0.530572,0.11269 0.755952,0 0.318738,-0.15937 0.437216,-0.59659 0.755952,-0.75596 0.225382,-0.11269 0.577773,0.17818 0.755954,0 0.356356,-0.35636 -0.35636,-1.15554 0,-1.5119 0.178178,-0.17818 0.577766,0.17818 0.755956,0 0.17818,-0.17818 0,-0.50397 0,-0.75595 0.25198,0 0.57777,0.17818 0.75595,0 0.17818,-0.17818 -0.17818,-0.57778 0,-0.75596 0.17818,-0.17818 0.57777,0.17818 0.75595,0 0.20684,-0.20684 -0.20505,-2.61371 0,-3.0238 0.15937,-0.31874 0.59658,-0.43722 0.75595,-0.75596 0.20394,-0.40787 -0.20394,-1.10403 0,-1.5119 0.15937,-0.31874 0.59659,-0.43722 0.75595,-0.75595 0.1127,-0.22539 -0.17817,-0.57778 0,-0.75596 0.17819,-0.17818 0.64327,0.22538 0.75596,0 0.22538,-0.45076 -0.15937,-1.0338 0,-1.5119 0.11269,-0.33807 0.59658,-0.43722 0.75595,-0.75596 0.11244,-0.22487 0,-4.21771 0,-4.53571 0,-2.09634 -0.11269,1.20672 0.75595,-2.26786 0.24446,-0.97784 -0.19767,-2.035443 0,-3.023804 0.15628,-0.78137 0.62495,-1.481857 0.75595,-2.267858 0.12428,-0.745667 0,-1.511905 0,-2.267857 0,-1.76389 0,-3.527777 0,-5.291667 0,-0.503967 0,-1.007935 0,-1.511906 0,-0.251983 0.17818,-0.57777 0,-0.755951 -0.43585,-0.435854 -1.50496,0.501655 -2.26785,0.755951 -0.47811,0.15937 -1.00794,0 -1.51191,0 -1.5119,0 -3.023806,0 -4.535712,0 z"
       id="path4519"
       inkscape:connector-curvature="0" />
    <path
       style="fill:none;stroke:#000000;stroke-width:2;stroke-linecap:butt;stroke-linejoin:miter;stroke-miterlimit:4;stroke-dasharray:none;stroke-opacity:1"
       d="m 36.285715,170.75595 c 1.511903,-0.25198 3.056961,-0.35266 4.535712,-0.75595 1.309164,-0.35705 2.492423,-1.08279 3.779763,-1.51191 1.740334,-0.58011 3.540699,-0.96473 5.291667,-1.5119 2.281714,-0.71304 4.525571,-1.54304 6.80357,-2.26786 3.266016,-1.03919 6.613384,-1.83344 9.827381,-3.02381 3.59918,-1.33303 6.976306,-3.22407 10.583334,-4.53571 4.718465,-1.71581 9.558117,-3.07966 14.363096,-4.53572 3.511267,-1.06402 7.152878,-1.7226 10.583332,-3.02381 3.89995,-1.47929 7.47648,-3.71793 11.33929,-5.29166 2.9518,-1.20259 6.1032,-1.86234 9.07142,-3.02381 6.07774,-2.37825 10.03589,-4.79363 15.875,-7.55953 2.24286,-1.0624 4.58382,-1.91393 6.80358,-3.0238 1.81708,-0.90855 3.52777,-2.01588 5.29166,-3.02381 1.76389,-1.25993 3.38312,-2.75209 5.29167,-3.77977 1.4032,-0.75556 3.14258,-0.73794 4.53571,-1.5119 0.93454,-0.51919 1.39791,-1.64647 2.26786,-2.26786 2.27443,-1.62459 2.11486,-1.5119 3.77976,-1.5119"
       id="path4521"
       inkscape:connector-curvature="0" />
    <path
       style="fill:none;stroke:#000000;stroke-width:2;stroke-linecap:butt;stroke-linejoin:miter;stroke-miterlimit:4;stroke-dasharray:none;stroke-opacity:1"
       d="m 77.107142,97.42857 c -3.268271,0.817068 -1.984852,0.755952 -3.779761,0.755952 -0.251984,0 -0.577773,-0.178179 -0.755954,0 -0.178179,0.178181 0.178181,0.577773 0,0.755954 -0.178179,0.178178 -0.503968,0 -0.755952,0 -0.251984,0 -0.503968,0 -0.755952,0 -2.015873,0 0.251984,-0.251984 -0.755951,0.755951 -0.178181,0.178179 -0.577774,-0.178181 -0.755955,0 -0.178178,0.178179 0.178181,0.577773 0,0.755953 -0.178178,0.17818 -0.57777,-0.17818 -0.755951,0 -0.02432,0.0243 0,2.08452 0,2.26786 0,0.25198 0,0.50396 0,0.75595 0,0.25198 -0.178181,0.57777 0,0.75595 0.178181,0.17818 0.577773,-0.17818 0.755951,0 0.178181,0.17818 -0.178178,0.57777 0,0.75595 0.178181,0.17818 0.530572,-0.11269 0.755955,0 0.318735,0.15937 0.437213,0.59659 0.755951,0.75596 0.230061,0.11503 1.927408,0 2.267858,0 2.015871,0 4.031744,0 6.047618,0 0.251984,0 0.503968,0 0.755952,0 0.251983,0 0.577773,0.17818 0.755954,0 0.178178,-0.17818 -0.178181,-0.57778 0,-0.75596 0.178178,-0.17818 0.503968,0 0.755951,0 0.251984,-0.50396 0.577774,-0.97736 0.755952,-1.5119 0.07968,-0.23905 -0.178178,-0.57777 0,-0.75595 0.178181,-0.17818 0.577773,0.17818 0.755952,0 0.178181,-0.17818 0,-0.50397 0,-0.75596 0,-0.18334 0.02432,-2.243543 0,-2.267853 -0.254678,-0.254677 -1.257226,0.254678 -1.511904,0 -0.178181,-0.178181 0.178179,-0.577773 0,-0.755951 -0.356359,-0.356359 -1.043982,0.187169 -1.511905,0 -1.046306,-0.418523 -2.015871,-1.007938 -3.023809,-1.511906 z"
       id="path4550"
       inkscape:connector-curvature="0" />
    <path
       style="fill:none;stroke:#000000;stroke-width:2;stroke-linecap:butt;stroke-linejoin:miter;stroke-miterlimit:4;stroke-dasharray:none;stroke-opacity:1"
       d="m 96.00595,98.184522 c -0.727866,2.253818 -2.652852,-0.563452 -3.77976,0 -0.318739,0.159369 -0.437216,0.596585 -0.755952,0.755954 -0.450765,0.22538 -1.155546,-0.356359 -1.511906,0 -0.178181,0.178178 0.178181,0.57777 0,0.755951 -0.178181,0.178179 -0.577773,-0.178181 -0.755951,0 -0.35636,0.356363 0.356359,1.155543 0,1.511903 -0.178181,0.17818 -0.577774,-0.17818 -0.755955,0 -0.178178,0.17818 0.178181,0.57777 0,0.75595 -0.178178,0.17818 -0.57777,-0.17818 -0.755951,0 -0.02432,0.0243 0,2.08452 0,2.26786 0,0.18334 -0.02432,2.24355 0,2.26786 0.03042,0.0304 2.746197,0 3.023809,0 0.356431,0 3.745502,0.0343 3.779763,0 0.178179,-0.17818 -0.112691,-0.53057 0,-0.75595 0.318736,-0.63748 1.193168,-0.87443 1.511903,-1.51191 0.112692,-0.22538 -0.178178,-0.57777 0,-0.75595 0.178181,-0.17818 0.577774,0.17818 0.755955,0 0,-2.01587 -0.251987,0.25198 0.755951,-0.75595 0.178179,-0.17818 0,-0.50397 0,-0.75596 0,-2.180858 0.200451,-1.21123 -1.511906,-3.779758 z"
       id="path4552"
       inkscape:connector-curvature="0" />
    <path
       style="fill:none;stroke:#000000;stroke-width:2;stroke-linecap:butt;stroke-linejoin:miter;stroke-miterlimit:4;stroke-dasharray:none;stroke-opacity:1"
       d="m 70.303572,111.03571 c 0.755951,1.00794 1.376957,2.13291 2.267855,3.02381 0.252425,0.25243 1.259482,-0.25242 1.511905,0 0.178181,0.17818 -0.178181,0.57777 0,0.75596 0.377976,0.37797 1.889882,-0.37798 2.267858,0 0.178178,0.17817 -0.178181,0.57777 0,0.75595 0.377976,0.37797 1.889882,-0.37798 2.267857,0 0.178179,0.17818 -0.178181,0.57777 0,0.75595 0.178179,0.17818 0.503968,0 0.755952,0 0.251984,0 0.503968,0 0.755952,0 1.511905,0 3.023809,0 4.535715,0 0.34045,0 2.037794,0.11503 2.267857,0 0.318738,-0.15937 0.437213,-0.59658 0.755952,-0.75595 0.225382,-0.11269 0.577773,0.17818 0.755951,0 0.178181,-0.17818 -0.178178,-0.57778 0,-0.75595 0.377979,-0.37798 1.889882,0.37797 2.267858,0 0.178181,-0.17819 -0.178179,-0.57778 0,-0.75596 0.356359,-0.35636 1.061143,0.22538 1.511906,0 0.318738,-0.15937 0.437213,-0.59658 0.755951,-0.75595 0.225383,-0.11269 0.577774,0.17818 0.755952,0 0.356359,-0.35636 -0.356359,-1.15554 0,-1.5119 0.178181,-0.17818 0.577773,0.17817 0.755954,0 0.178179,-0.17818 0,-0.50397 0,-0.75596 0,-0.25198 0,-0.50397 0,-0.75595"
       id="path4554"
       inkscape:connector-curvature="0" />
    <path
       style="fill:none;stroke:#000000;stroke-width:1;stroke-linecap:butt;stroke-linejoin:miter;stroke-miterlimit:4;stroke-dasharray:none;stroke-opacity:1"
       d="m 116.41667,61.89881 c -0.25199,1.007935 -0.58515,1.998988 -0.75596,3.023809 -0.0828,0.49711 0,1.007935 0,1.511903 0,2.015874 0,4.031747 0,6.047621 0,5.795634 0,11.591269 0,17.386903"
       id="path4556"
       inkscape:connector-curvature="0" />
    <path
       style="fill:none;stroke:#000000;stroke-width:1;stroke-linecap:butt;stroke-linejoin:miter;stroke-miterlimit:4;stroke-dasharray:none;stroke-opacity:1"
       d="m 134.55952,58.119046 c -0.55234,1.970159 0.33141,4.059174 0,6.047621 -0.131,0.786001 -0.62495,1.481855 -0.75595,2.267855 -0.12428,0.745667 0,1.511906 0,2.267858 0,0.755954 0,1.511905 0,2.267857 0,2.015874 0,4.031747 0,6.047618 0,1.76389 0,3.52778 0,5.291667 0,0.251984 0,0.50397 0,0.755954 0,0.251984 0.11269,0.530569 0,0.755952 -0.15937,0.318738 -0.59658,0.437213 -0.75595,0.755951 -0.11269,0.225383 0,0.503968 0,0.755955 0,0.251983 0,0.503967 0,0.755951"
       id="path4558"
       inkscape:connector-curvature="0" />
    <path
       style="fill:none;stroke:#000000;stroke-width:1;stroke-linecap:butt;stroke-linejoin:miter;stroke-miterlimit:4;stroke-dasharray:none;stroke-opacity:1"
       d="m 111.88095,76.261904 c 1.00794,0 2.03545,0.197672 3.02381,0 0.34944,-0.06989 0.41788,-0.643261 0.75595,-0.755952 0.47811,-0.159369 1.00794,0 1.51191,0 0.50396,-0.251984 0.97736,-0.577773 1.5119,-0.755952 0.23906,-0.07968 0.50397,0 0.75595,0 1.25993,0 2.51985,0 3.77977,0 0.25198,0 0.53057,0.112689 0.75595,0 0.31874,-0.159369 0.43721,-0.596585 0.75595,-0.755954 0.40788,-0.203938 1.10403,0.203938 1.51191,0 0.31873,-0.159369 0.43721,-0.596582 0.75595,-0.755952 0.23006,-0.11503 1.92741,0 2.26786,0 0.35643,0 3.7455,0.03426 3.77976,0 0.17818,-0.178181 0,-0.503967 0,-0.755951"
       id="path4560"
       inkscape:connector-curvature="0" />
    <path
       style="fill:none;stroke:#000000;stroke-width:1;stroke-linecap:butt;stroke-linejoin:miter;stroke-miterlimit:4;stroke-dasharray:none;stroke-opacity:1"
       d="m 159.50595,73.238094 c -3.27579,0 -6.55159,0 -9.82738,0 -0.34045,0 -2.0378,-0.11503 -2.26786,0 -1.04929,0.524648 -0.75595,1.345081 -0.75595,2.267858 0,0.251984 0.11269,0.530572 0,0.755952 -0.15937,0.318738 -0.59658,0.437216 -0.75595,0.755951 -0.11269,0.225383 0,0.503971 0,0.755954 0,0.251984 0,0.503968 0,0.755952 0,1.511906 0,3.023809 0,4.535715 0,0.251984 -0.17818,0.577771 0,0.755952 0.39842,0.398423 1.11348,0.357531 1.5119,0.755951 0.17818,0.178181 -0.20966,0.616178 0,0.755955 0.66302,0.442007 1.55514,0.399592 2.26786,0.755951 0.31874,0.159369 0.41788,0.64326 0.75595,0.755952 0.47811,0.159369 1.02298,-0.12223 1.51191,0 0.54663,0.136657 0.95939,0.645451 1.5119,0.755951 0.69264,0.138528 4.55159,0 5.29167,0 2.74762,0 2.28608,0.368867 4.53571,-0.755951 0.50397,-0.251984 1.11349,-0.357532 1.51191,-0.755952 0.39842,-0.398423 0.35753,-1.113483 0.75595,-1.511906 1.56409,-1.564092 -0.0611,2.39014 1.5119,-0.755951 0.2014,-0.402799 -0.20139,-1.109107 0,-1.511906 0.15937,-0.318736 0.59659,-0.437214 0.75596,-0.755952 0.11269,-0.22538 0,-0.503968 0,-0.755951 0,-0.251984 0,-0.503968 0,-0.755952 0,-1.511906 0,-3.023812 0,-4.535715 0,-1.511906 0,-3.023809 0,-4.535715 0,-0.503968 0,-1.007935 0,-1.511903 0,-0.503971 0.12223,-1.022985 0,-1.511906 -0.13666,-0.546632 -0.35753,-1.113483 -0.75596,-1.511906 -0.0304,-0.03042 -2.74619,0 -3.02381,0 -3.27579,0 -6.55158,0 -9.82738,0 -0.29883,0 -3.4569,-0.161428 -3.77976,0 -1.48396,0.741984 -0.34033,1.436608 -0.75595,2.267858 -0.93413,1.868265 -0.75595,-0.260938 -0.75595,1.511905"
       id="path4562"
       inkscape:connector-curvature="0" />
    <path
       style="fill:none;stroke:#000000;stroke-width:1;stroke-linecap:butt;stroke-linejoin:miter;stroke-miterlimit:4;stroke-dasharray:none;stroke-opacity:1"
       d="m 180.67262,48.291667 c -0.25199,1.511904 -0.6384,3.007469 -0.75596,4.535713 -0.13528,1.758693 0,3.527779 0,5.291666 0,0.554742 0,9.727057 0,9.827382 0,10.331349 0,20.662699 0,30.994048"
       id="path4564"
       inkscape:connector-curvature="0" />
    <path
       style="fill:none;stroke:#000000;stroke-width:1;stroke-linecap:butt;stroke-linejoin:miter;stroke-miterlimit:4;stroke-dasharray:none;stroke-opacity:1"
       d="m 195.03571,83.065476 c -1.89676,-0.826556 -3.39617,-0.755954 -5.29166,-0.755954 -0.25199,0 -0.53058,-0.112689 -0.75596,0 -3.14609,1.573048 0.80814,-0.05219 -0.75595,1.511906 -0.17818,0.178178 -0.57777,-0.178181 -0.75595,0 -0.17818,0.178178 0.17818,0.577773 0,0.755951 -0.17818,0.178181 -0.57777,-0.178178 -0.75595,0 -0.17818,0.178181 0,0.503968 0,0.755955 0,1.511903 0,3.023809 0,4.535712 0,0.277614 -0.0304,2.99339 0,3.023809 0.0243,0.02432 2.08451,0 2.26785,0 0.5258,0 3.50639,0.136689 3.77977,0 0.31873,-0.159366 0.50396,-0.503968 0.75595,-0.755952 0.25198,-0.251983 0.59658,-0.437213 0.75595,-0.755951 0.22538,-0.450763 -0.35636,-1.155547 0,-1.511906 1.00794,-1.007936 0.75595,1.259922 0.75595,-0.755952 0,-1.007935 0,-2.015873 0,-3.023809 0,-1.007938 -0.45076,-3.925337 0,-3.023809 1.02892,2.057842 0.75595,5.192292 0.75595,7.559524 0,0.251984 0,0.503968 0,0.755952 0,0.251984 -0.17818,0.577773 0,0.755951 0.17819,0.178181 0.53058,-0.112691 0.75596,0 3.14609,1.573046 -0.80814,-0.05219 0.75595,1.511906 0.17818,0.178179 0.57777,-0.178181 0.75595,0 0.74573,0.745728 -1.549,1.511904 0.75595,1.511904"
       id="path4566"
       inkscape:connector-curvature="0" />
  </g>
</svg>
