<?xml version="1.0" encoding="utf-8"?>
<!-- Generator: Adobe Illustrator 22.1.0, SVG Export Plug-In . SVG Version: 6.00 Build 0)  -->
<svg version="1.1" id="Capa_1" xmlns="http://www.w3.org/2000/svg" xmlns:xlink="http://www.w3.org/1999/xlink" x="0px" y="0px"
	 viewBox="0 0 48 48" style="enable-background:new 0 0 48 48;" xml:space="preserve">
<g>
	<g>
		<g>
			<path d="M29.4,10.1c-0.9-1-2.4-1.6-4-1.6c-2.9,0-5.4,1.9-5.7,4.3c-0.1,1.1,0.2,2.2,1,3c0.9,1,2.4,1.6,3.9,1.6
				c2.9,0,5.4-1.9,5.7-4.3C30.5,12,30.1,10.9,29.4,10.1z M28,12.8c-0.1,1.3-1.7,2.3-3.4,2.3c-0.9,0-1.8-0.3-2.2-0.8
				C22.1,13.9,22,13.5,22,13c0.1-1.2,1.7-2.3,3.4-2.3c0.9,0,1.8,0.3,2.3,0.9C27.9,11.8,28.1,12.2,28,12.8z"/>
		</g>
	</g>
	<g>
		<g>
			<path d="M28.3,34.6c-0.3-0.2-1-0.6-0.4-3.8c0-0.1,0.1-0.3,0.2-0.7c0.2-0.9,0.6-2.6,0.9-4.4c0,0,0,0,0,0c0.4-2,0.1-3.8-0.9-5.1
				c-0.9-1.2-2.3-1.9-4-2.1c-2.5-0.2-5.1,1.3-5.9,2.8c-0.4,0.6-0.2,1.2-0.1,1.4c0.2,0.3,0.4,0.5,0.6,0.6c0.3,0.2,0.9,0.7,0.3,3.8
				c-0.1,0.3-0.9,4.8-1.1,5.4c0,0,0,0,0,0c-0.3,2,0,3.8,1,5.1c1.7,2.1,4.3,2,4.4,2c2.4,0,4.8-1.5,5.5-2.9c0.4-0.7,0.2-1.2,0-1.4
				C28.7,34.9,28.5,34.8,28.3,34.6z M26.7,25.3c-0.4,1.9-0.7,3.5-0.9,4.4c-0.1,0.6-0.2,0.7-0.2,0.8c0,0,0,0,0,0
				c-0.6,3.4,0,4.8,0.8,5.7c-0.2,0.2-0.5,0.4-0.9,0.6c-0.8,0.4-1.6,0.6-2.3,0.6c-1-0.1-1.9-0.4-2.4-1.1c-0.6-0.8-0.8-1.9-0.6-3.2
				c0.1-0.7,1-5.2,1-5.3c0,0,0,0,0,0c0.7-3.3,0.1-4.8-0.7-5.7c0.2-0.2,0.6-0.4,0.9-0.6c0.8-0.4,1.6-0.6,2.3-0.5
				c1,0.1,1.8,0.5,2.4,1.1C26.8,22.8,27,23.9,26.7,25.3z"/>
		</g>
	</g>
	<g>
		<g>
			<path d="M43.1,37c3.2-3.8,4.9-8.5,4.9-13.3c0-5.9-2.5-11.4-7.1-15.6C36.4,4,30.4,1.8,24,1.8S11.6,4,7.1,8.2
				C2.5,12.3,0,17.8,0,23.7s2.5,11.4,7.1,15.6c4.5,4.1,10.5,6.4,16.9,6.4c4,0,7.9-0.9,11.4-2.6l8.4,3.1c0.1,0,0.3,0.1,0.4,0.1
				c0.3,0,0.6-0.1,0.8-0.3c0.3-0.3,0.4-0.7,0.3-1.2L43.1,37z M35.8,40.7c-0.3-0.1-0.6-0.1-0.9,0.1c-3.3,1.7-7,2.6-10.8,2.6
				c-12,0-21.7-8.8-21.7-19.7S12,4.1,24,4.1s21.7,8.8,21.7,19.7c0,4.5-1.6,8.8-4.7,12.3c-0.3,0.3-0.4,0.7-0.2,1.1l1.8,6.1L35.8,40.7
				z"/>
		</g>
	</g>
</g>
</svg>
