<?xml version="1.0" encoding="utf-8"?>
<!-- Generator: Adobe Illustrator 22.1.0, SVG Export Plug-In . SVG Version: 6.00 Build 0)  -->
<svg version="1.1" id="Capa_1" xmlns="http://www.w3.org/2000/svg" xmlns:xlink="http://www.w3.org/1999/xlink" x="0px" y="0px"
	 viewBox="0 0 48 48" style="enable-background:new 0 0 48 48;" xml:space="preserve">
<g>
	<g>
		<g>
			<g>
				<path d="M12.3,20.4c-3.3,0-6,2.7-6,6s2.7,6,6,6s6-2.7,6-6S15.6,20.4,12.3,20.4z M12.3,29.9c-1.9,0-3.4-1.5-3.4-3.4
					c0-1.9,1.5-3.4,3.4-3.4s3.4,1.5,3.4,3.4C15.7,28.4,14.1,29.9,12.3,29.9z"/>
			</g>
		</g>
		<g>
			<g>
				<path d="M24.5,46.6C24.4,40,19,34.6,12.3,34.6C5.5,34.6,0,40,0,46.8c0,0.7,0.6,1.3,1.3,1.3h21.8h0
					C24.7,48.1,24.5,46.7,24.5,46.6z M2.8,45.5c0.6-4.7,4.7-8.3,9.5-8.3s8.8,3.6,9.5,8.3H2.8z"/>
			</g>
		</g>
	</g>
	<g>
		<g>
			<g>
				<path d="M34.1,0.1c-7.7,0-13.9,6.3-13.9,13.9c0,3.1,1,6.1,2.9,8.6l-1.6,8.3c-0.1,0.5,0.1,1.1,0.6,1.4c0.4,0.3,1.2,0.2,1.5-0.1
					l6.5-4.8c1.3,0.4,2.6,0.6,3.9,0.6C41.8,28,48,21.8,48,14.1S41.8,0.1,34.1,0.1z M34.1,25.3c-1.3,0-2.5-0.2-3.7-0.6
					c-0.4-0.2-0.9-0.1-1.2,0.2l-4.4,3.2l1.1-5.6c0.1-0.4,0-0.8-0.3-1.1c-1.8-2-2.7-4.6-2.7-7.3c0-6.2,5.1-11.3,11.3-11.3
					s11.3,5.1,11.3,11.3C45.4,20.3,40.3,25.3,34.1,25.3z"/>
			</g>
		</g>
		<g>
			<g>
				<g>
					<path d="M34.2,5C34.2,5,34.1,5,34.2,5c-1.5,0-2.8,0.5-3.8,1.5c-1,1-1.6,2.4-1.6,3.8c0,0.7,0.6,1.3,1.3,1.3
						c0.7,0,1.3-0.6,1.3-1.3c0-0.7,0.3-1.4,0.8-1.9c0.5-0.5,1.2-0.8,1.9-0.8c1.4,0,2.6,1.2,2.6,2.6c0,0.9-0.5,1.8-1.3,2.3
						c-1.7,1.1-2.7,2.9-2.7,4.8c0,0.7,0.6,1.3,1.3,1.3c0.7,0,1.3-0.6,1.3-1.3c0-1,0.6-1.9,1.5-2.5c1.6-1,2.5-2.7,2.5-4.6
						C39.4,7.4,37,5,34.2,5z"/>
				</g>
			</g>
			<g>
				<g>
					<path d="M34.1,20c-0.7,0-1.3,0.6-1.3,1.3v0.5c0,0.7,0.6,1.3,1.3,1.3c0.7,0,1.3-0.6,1.3-1.3v-0.5C35.4,20.6,34.8,20,34.1,20z"/>
				</g>
			</g>
		</g>
	</g>
</g>
</svg>
