<?xml version="1.0" encoding="utf-8"?>
<!-- Generator: Adobe Illustrator 22.1.0, SVG Export Plug-In . SVG Version: 6.00 Build 0)  -->
<svg version="1.1" id="Capa_1" xmlns="http://www.w3.org/2000/svg" xmlns:xlink="http://www.w3.org/1999/xlink" x="0px" y="0px"
	 viewBox="0 0 48 48" style="enable-background:new 0 0 48 48;" xml:space="preserve">
<style type="text/css">
	.st0{fill:url(#SVGID_1_);}
</style>
<g>
	<g>
		<linearGradient id="SVGID_1_" gradientUnits="userSpaceOnUse" x1="24" y1="1.5625" x2="24" y2="45.1276">
			<stop  offset="0.25" style="stop-color:#FF4343"/>
			<stop  offset="0.75" style="stop-color:#39B54A"/>
		</linearGradient>
		<path class="st0" d="M43.3,6.1C38.1,0.9,30,0.3,24.1,3.8C18,0.1,9.6,1.1,4.5,6.1c-6,6-6,15.8,0,21.9c0,0,0,0,0,0l4,4c0,0,0,0,0,0
			c0.7,0.7,1.7,1.2,2.8,1.2c0.1,1,0.5,2,1.2,2.7c0.8,0.8,1.7,1.2,2.8,1.2c0.1,1,0.5,2,1.2,2.8c0.8,0.8,1.7,1.2,2.8,1.2
			c0.1,1,0.5,2,1.2,2.8c1.6,1.6,4.3,1.6,5.9,0L31,40c0,0,0.1,0,0.1-0.1c0.8-0.8,1.2-1.7,1.2-2.7c1-0.1,2-0.5,2.8-1.2
			c0.8-0.8,1.2-1.7,1.4-2.7c1.1,0,2.1-0.4,2.9-1.2c0.8-0.8,1.2-1.7,1.2-2.7c1-0.1,2-0.5,2.7-1.2c0,0,0,0,0,0
			C49.6,21.7,49.6,12.4,43.3,6.1z M12.5,30L12.5,30C12.5,30,12.5,30,12.5,30c-0.5,0.5-1.4,0.6-2,0c0,0,0,0,0,0l0,0
			c-0.5-0.5-0.5-1.4,0-1.9l4-3.3c0,0,0.1-0.1,0.1-0.1c0.5-0.5,1.4-0.5,2,0c0.5,0.5,0.5,1.2,0.2,1.7L12.5,30
			C12.5,29.9,12.5,29.9,12.5,30z M16.5,33.9c-0.5,0.5-1.4,0.5-2,0c-0.5-0.5-0.5-1.4,0-2c4.4-3.7,3.8-3.2,4.7-4c0.5-0.5,1.4-0.5,2,0
			c0.5,0.5,0.5,1.4,0,2L16.5,33.9C16.5,33.9,16.5,33.9,16.5,33.9z M20.4,37.9c-0.5,0.5-1.4,0.5-2,0c-0.5-0.5-0.5-1.4,0-2L23,32
			c0,0,0.1,0,0.1-0.1c0.5-0.5,1.4-0.5,2,0c0.5,0.5,0.5,1.4,0,2L20.4,37.9C20.5,37.9,20.5,37.9,20.4,37.9z M29.1,37.9l-4.6,3.9
			c0,0-0.1,0-0.1,0.1c-0.5,0.5-1.4,0.5-2,0c-0.5-0.5-0.5-1.4,0-2L27,36c0,0,0.1,0,0.1-0.1c0.5-0.5,1.4-0.5,2,0
			C29.6,36.5,29.6,37.3,29.1,37.9z M41.3,26c-0.5,0.5-1.4,0.5-2,0l-8-8c-0.5-0.5-1.4-0.5-2,0c-0.5,0.5-0.5,1.4,0,2l8,8
			c0.5,0.5,0.5,1.4,0,2c-0.5,0.5-1.4,0.5-2,0c0,0,0,0,0,0l-8-8c-0.5-0.5-1.4-0.5-2,0c-0.5,0.5-0.5,1.4,0,2l8,8
			c0.5,0.5,0.3,1.4-0.3,2c-0.5,0.5-1.4,0.5-2,0c0,0,0,0,0,0c-0.7-0.7-1.7-1.2-2.7-1.2c-0.1-1-0.5-2-1.2-2.7
			c-0.8-0.8-1.7-1.2-2.8-1.2c-0.1-1-0.5-2-1.2-2.8c-0.9-0.9-2.2-1.3-3.4-1.2c-0.2-0.8-0.5-1.6-1.2-2.2c-1.6-1.6-4.3-1.6-5.9,0
			l-4,3.4c0,0-0.1,0.1-0.1,0.1c-0.3,0.3-0.6,0.7-0.8,1.2L6.5,26c-2.4-2.4-3.7-5.6-3.7-9c0-3.4,1.3-6.6,3.7-9
			c3.8-3.8,10.2-4.7,15.1-2.5c-0.2,0.2-0.3,0.3-0.5,0.5l-5.8,5.8c-1.8,1.8-1.8,4.6,0,6.4c1.5,1.5,3.9,1.7,5.7,0.6l8.9-5.9
			c3.9,3.8,6.9,6.6,11.4,11.1C41.8,24.6,41.8,25.4,41.3,26z M43.3,22c-4.9-4.9-8-7.7-12.2-11.9c0,0,0,0,0,0
			c-0.5-0.5-1.2-0.5-1.8-0.2c0,0,0,0,0,0l-9.8,6.5c-0.7,0.4-1.6,0.4-2.1-0.2c-0.7-0.7-0.7-1.7,0-2.4l5.8-5.8
			c4.9-4.9,13.3-4.9,18.2,0c4,4,5.1,9.6,2.5,14.5C43.6,22.4,43.5,22.2,43.3,22z"/>
	</g>
</g>
</svg>
