<svg id="Capa_1" data-name="Capa 1" xmlns="http://www.w3.org/2000/svg" viewBox="0 0 48 38.06"><defs><style>.cls-1{fill:#4c18b2;}</style></defs><title>Conciencia</title><path class="cls-1" d="M22.6,27.61q-6,0-6-4.12a6.9,6.9,0,0,1,.12-1.23l.6-3.54a6.17,6.17,0,0,1,2.5-4.21A8.8,8.8,0,0,1,25.06,13q6.09,0,6.09,4.23a5.88,5.88,0,0,1-.21,1.64,2.7,2.7,0,0,1-.45,1l-.23.29H25.4a1.93,1.93,0,0,0,.72-1.49,1.37,1.37,0,0,0-1.55-1.55,2.4,2.4,0,0,0-1.57.55,2.68,2.68,0,0,0-.86,1.66l-.37,2.08a2.72,2.72,0,0,0-.06.55c0,1,.63,1.51,1.89,1.51a1.74,1.74,0,0,0,1.13-.4,1.49,1.49,0,0,0,.59-.88l4.74.05Q29.13,27.61,22.6,27.61Z" transform="translate(0 -4.78)"/><path class="cls-1" d="M48,21.66a8.7,8.7,0,0,0-4.13-7.39,8.63,8.63,0,0,0-8.51-6.94,8.54,8.54,0,0,0-3.17.6A8.71,8.71,0,0,0,20.57,6.3,8.68,8.68,0,0,0,9.36,9.66a11.72,11.72,0,0,0,2.36,23.2,11.35,11.35,0,0,0,3.54-.55A8.7,8.7,0,0,0,22.33,36,8.54,8.54,0,0,0,24,35.8l6.65,6.53a1.8,1.8,0,0,0,1.24.51h4.73a1.78,1.78,0,0,0,1.77-1.61L39,34.76a8.7,8.7,0,0,0,8.16-8.67c0-.22,0-.45,0-.67A8.73,8.73,0,0,0,48,21.66ZM43.78,24.2a1.73,1.73,0,0,0-.21,1.14,6.3,6.3,0,0,1,0,.75,5.14,5.14,0,0,1-5.13,5.14,5.42,5.42,0,0,1-.81-.06,1.77,1.77,0,0,0-1.37.35,1.75,1.75,0,0,0-.67,1.23L35,39.29H32.63l-6.85-6.73A1.8,1.8,0,0,0,24,32.15a5.36,5.36,0,0,1-1.64.26,5.15,5.15,0,0,1-4.68-3,1.76,1.76,0,0,0-1-.94,1.79,1.79,0,0,0-1.38.07A8.17,8.17,0,1,1,10.72,13a1.81,1.81,0,0,0,1.41-1,5.13,5.13,0,0,1,7.59-2.1A1.78,1.78,0,0,0,22,9.73,5.13,5.13,0,0,1,30,11.05a1.77,1.77,0,0,0,2.53.66,5.11,5.11,0,0,1,2.8-.84,5.17,5.17,0,0,1,5.12,4.68,1.78,1.78,0,0,0,1,1.46,5.14,5.14,0,0,1,2.29,7.19Z" transform="translate(0 -4.78)"/></svg>