<svg xmlns="http://www.w3.org/2000/svg" width="640" height="134">
  <path fill="#009fdf" d="M59.1 133.8l-16.9-28c-1.3.1-2.8.1-4.2.1H16.1v27.8H.5V41.5H38C61.6 41.5 75.2 53 75.2 73c0 14.8-6.9 25.2-19.1 29.9l20.7 30.9H59.1zM38 92c14.2 0 22.4-6.1 22.4-18.6 0-12.1-8.2-17.9-22.4-17.9H16.1V92H38zm108.4 19.9l8.8 8.2c-7.9 9.6-18.2 14.2-30.3 14.2-21.6 0-36.5-14.4-36.5-35.6 0-20.6 13.6-35.3 35.2-35.6 19.1-.3 31.9 11.5 33.1 30.6l-51 15.3c3.4 8.2 10.7 13.2 20.2 13.2 7.7 0 14.8-3.6 20.5-10.3zm-42.9-14v.1L142 86.6c-3.3-7.9-9.2-11.2-17.5-11.2-12.8 0-21 7.9-21 22.5zm97.3-21.5c-12.1 0-20.8 9.1-20.8 22.4 0 13.3 8.7 22.4 20.8 22.4 8.8 0 16-2.9 20.7-8.4l8.4 8.4c-6.3 8.3-16.5 13.1-29.8 13.1-20.8 0-35.3-14.4-35.3-35.5 0-21.2 14.5-35.7 35.3-35.7 12.7 0 22.5 4.1 29 11.5l-8.3 9.8c-4.8-5.1-11.5-8.1-20-8zm108.8 22.2c0 21.2-14.9 35.7-36.5 35.7-21.8 0-36.7-14.5-36.7-35.7 0-21.1 14.9-35.5 36.7-35.5 21.6 0 36.5 14.4 36.5 35.5zm-58 .2c0 13.6 8.8 22.8 21.5 22.8 12.5 0 21.4-9.2 21.4-22.8 0-13.5-8.8-22.8-21.4-22.8-12.6 0-21.5 9.4-21.5 22.8zm113.3-35.7v14.5c-14.1-.8-23.1 7.5-24.3 19.5v36.7h-15.2V63.6h15.2v14c4.8-9.5 13.2-14.5 24.3-14.5zm79.4-27.2v97.8h-15.2v-12c-5 8.2-13.5 12.7-24.7 12.7-20.2 0-33.6-14.6-33.6-36 0-21.1 13.6-35.5 33.4-35.5 11.3 0 19.8 4.6 24.9 12.8V35.9h15.2zM429.1 99c0-13.6-8.8-23.1-21.5-23.1S386.1 85.5 386 99c.1 13.3 8.8 22.8 21.6 22.8 12.7 0 21.5-9.5 21.5-22.8zM534 63.6v70.2h-15v-11.9c-5.1 8-13.5 12.5-24.5 12.5-20.2 0-33.6-14.6-33.6-36 0-21 13.3-35.3 33.1-35.5 11.3-.1 19.9 4.4 25.1 12.5V63.6H534zm-15.1 37.9v-5.1c-1.2-12.1-9.5-20.4-21.4-20.4-12.7 0-21.5 9.6-21.6 23.1.1 13.3 8.8 22.8 21.6 22.8 11.9-.1 20.2-8.4 21.4-20.4zm76.9-38.4v14.5c-14.1-.8-23.1 7.5-24.3 19.5v36.7h-15.2V63.6h15.2v14c4.8-9.5 13.2-14.5 24.3-14.5zm27.6.5v70.2h-15V63.6h15z" class="st2"/>
  <path fill="#fff" d="M640 21.4C640 9.6000002 629.2 0 615.9 0s-24.1 9.6000002-24.1 21.4c0 10.8 9 19.7 20.7 21.2v7.9c0 .7.5 2.1 1.8 2.1 1.2 0 1.9-.9 1.9-.9l10.6-11.2C634.6 37 640 29.8 640 21.4z" class="st3"/>
  <path fill="#1d1d1b" d="M640 21.3C640 9.5 629.2-.1 615.9-.1s-24.1 9.6-24.1 21.4c0 10.8 9 19.7 20.7 21.2v7.9c0 .7.5 2.1 1.8 2.1 1.2 0 1.9-.9 1.9-.9l10.6-11.2c7.8-3.5 13.2-10.7 13.2-19.1zm-24.4 17.8c-11.1 0-19.7-7.9-19.7-17.8 0-9.8 9-17.8 20-17.8s20 7.9 20 17.8c0 7.1-4.8 13.3-11.6 16.1-2.4 2.3-7 7.4-7.5 8-1.1.1.6-6.3-1.2-6.3z" class="st3"/>
</svg>
