<?xml version="1.0" encoding="UTF-8" standalone="no"?>
<svg
   xmlns:dc="http://purl.org/dc/elements/1.1/"
   xmlns:cc="http://creativecommons.org/ns#"
   xmlns:rdf="http://www.w3.org/1999/02/22-rdf-syntax-ns#"
   xmlns:svg="http://www.w3.org/2000/svg"
   xmlns="http://www.w3.org/2000/svg"
   xmlns:sodipodi="http://sodipodi.sourceforge.net/DTD/sodipodi-0.dtd"
   xmlns:inkscape="http://www.inkscape.org/namespaces/inkscape"
   width="640"
   height="134"
   version="1.1"
   id="svg8"
   sodipodi:docname="recordari-black.min.svg"
   inkscape:version="0.92.1 r15371"
   viewBox="0 0 640 134">
  <metadata
     id="metadata14">
    <rdf:RDF>
      <cc:Work
         rdf:about="">
        <dc:format>image/svg+xml</dc:format>
        <dc:type
           rdf:resource="http://purl.org/dc/dcmitype/StillImage" />
        <dc:title></dc:title>
      </cc:Work>
    </rdf:RDF>
  </metadata>
  <defs
     id="defs12" />
  <sodipodi:namedview
     pagecolor="#ffffff"
     bordercolor="#666666"
     borderopacity="1"
     objecttolerance="10"
     gridtolerance="10"
     guidetolerance="10"
     inkscape:pageopacity="0"
     inkscape:pageshadow="2"
     inkscape:window-width="1366"
     inkscape:window-height="705"
     id="namedview10"
     showgrid="false"
     inkscape:zoom="0.4484375"
     inkscape:cx="36.811451"
     inkscape:cy="67"
     inkscape:window-x="-8"
     inkscape:window-y="-8"
     inkscape:window-maximized="1"
     inkscape:current-layer="svg8" />
  <path
     d="m 59.1,133.8 -16.9,-28 c -1.3,0.1 -2.8,0.1 -4.2,0.1 H 16.1 v 27.8 H 0.5 V 41.5 H 38 c 23.6,0 37.2,11.5 37.2,31.5 0,14.8 -6.9,25.2 -19.1,29.9 l 20.7,30.9 z M 38,92 C 52.2,92 60.4,85.9 60.4,73.4 60.4,61.3 52.2,55.5 38,55.5 H 16.1 V 92 Z m 108.4,19.9 8.8,8.2 c -7.9,9.6 -18.2,14.2 -30.3,14.2 -21.6,0 -36.5,-14.4 -36.5,-35.6 0,-20.6 13.6,-35.3 35.2,-35.6 19.1,-0.3 31.9,11.5 33.1,30.6 l -51,15.3 c 3.4,8.2 10.7,13.2 20.2,13.2 7.7,0 14.8,-3.6 20.5,-10.3 z m -42.9,-14 V 98 L 142,86.6 c -3.3,-7.9 -9.2,-11.2 -17.5,-11.2 -12.8,0 -21,7.9 -21,22.5 z m 97.3,-21.5 c -12.1,0 -20.8,9.1 -20.8,22.4 0,13.3 8.7,22.4 20.8,22.4 8.8,0 16,-2.9 20.7,-8.4 l 8.4,8.4 c -6.3,8.3 -16.5,13.1 -29.8,13.1 -20.8,0 -35.3,-14.4 -35.3,-35.5 0,-21.2 14.5,-35.7 35.3,-35.7 12.7,0 22.5,4.1 29,11.5 l -8.3,9.8 c -4.8,-5.1 -11.5,-8.1 -20,-8 z m 108.8,22.2 c 0,21.2 -14.9,35.7 -36.5,35.7 -21.8,0 -36.7,-14.5 -36.7,-35.7 0,-21.1 14.9,-35.5 36.7,-35.5 21.6,0 36.5,14.4 36.5,35.5 z m -58,0.2 c 0,13.6 8.8,22.8 21.5,22.8 12.5,0 21.4,-9.2 21.4,-22.8 0,-13.5 -8.8,-22.8 -21.4,-22.8 -12.6,0 -21.5,9.4 -21.5,22.8 z M 364.9,63.1 v 14.5 c -14.1,-0.8 -23.1,7.5 -24.3,19.5 v 36.7 H 325.4 V 63.6 h 15.2 v 14 c 4.8,-9.5 13.2,-14.5 24.3,-14.5 z m 79.4,-27.2 v 97.8 h -15.2 v -12 c -5,8.2 -13.5,12.7 -24.7,12.7 -20.2,0 -33.6,-14.6 -33.6,-36 0,-21.1 13.6,-35.5 33.4,-35.5 11.3,0 19.8,4.6 24.9,12.8 V 35.9 Z M 429.1,99 c 0,-13.6 -8.8,-23.1 -21.5,-23.1 -12.7,0 -21.5,9.6 -21.6,23.1 0.1,13.3 8.8,22.8 21.6,22.8 12.7,0 21.5,-9.5 21.5,-22.8 z M 534,63.6 v 70.2 h -15 v -11.9 c -5.1,8 -13.5,12.5 -24.5,12.5 -20.2,0 -33.6,-14.6 -33.6,-36 0,-21 13.3,-35.3 33.1,-35.5 11.3,-0.1 19.9,4.4 25.1,12.5 V 63.6 Z m -15.1,37.9 V 96.4 C 517.7,84.3 509.4,76 497.5,76 c -12.7,0 -21.5,9.6 -21.6,23.1 0.1,13.3 8.8,22.8 21.6,22.8 11.9,-0.1 20.2,-8.4 21.4,-20.4 z m 76.9,-38.4 v 14.5 c -14.1,-0.8 -23.1,7.5 -24.3,19.5 v 36.7 H 556.3 V 63.6 h 15.2 v 14 c 4.8,-9.5 13.2,-14.5 24.3,-14.5 z m 27.6,0.5 v 70.2 h -15 V 63.6 Z"
     class="st2"
     id="path2"
     inkscape:connector-curvature="0"
     style="fill:#1d1d1b;fill-opacity:1;opacity:1" />
  <path
     d="M 640,21.4 C 640,9.6000002 629.2,0 615.9,0 c -13.3,0 -24.1,9.6000002 -24.1,21.4 0,10.8 9,19.7 20.7,21.2 v 7.9 c 0,0.7 0.5,2.1 1.8,2.1 1.2,0 1.9,-0.9 1.9,-0.9 L 626.8,40.5 C 634.6,37 640,29.8 640,21.4 Z"
     class="st3"
     id="path4"
     inkscape:connector-curvature="0"
     style="fill:#ffffff" />
  <path
     d="m 640,21.3 c 0,-11.8 -10.8,-21.4 -24.1,-21.4 -13.3,0 -24.1,9.6 -24.1,21.4 0,10.8 9,19.7 20.7,21.2 v 7.9 c 0,0.7 0.5,2.1 1.8,2.1 1.2,0 1.9,-0.9 1.9,-0.9 L 626.8,40.4 C 634.6,36.9 640,29.7 640,21.3 Z m -24.4,17.8 c -11.1,0 -19.7,-7.9 -19.7,-17.8 0,-9.8 9,-17.8 20,-17.8 11,0 20,7.9 20,17.8 0,7.1 -4.8,13.3 -11.6,16.1 -2.4,2.3 -7,7.4 -7.5,8 -1.1,0.1 0.6,-6.3 -1.2,-6.3 z"
     class="st3"
     id="path6"
     inkscape:connector-curvature="0"
     style="fill:#1d1d1b" />
</svg>
