<svg id="Capa_1" data-name="Capa 1" xmlns="http://www.w3.org/2000/svg" viewBox="0 0 640 109.85"><title>Recordari black</title><path d="M59.55,109.18,42.38,80.75c-1.34.13-2.82.13-4.29.13H15.83v28.3H0V15.29H38.09c24,0,37.82,11.67,37.82,32.06,0,15-7,25.62-19.45,30.45l21.06,31.38ZM38.09,66.66c14.48,0,22.8-6.17,22.8-18.91,0-12.34-8.32-18.24-22.8-18.24H15.83V66.66Z"/><path d="M148.35,86.92l9,8.32c-8,9.79-18.51,14.48-30.85,14.48-22,0-37.15-14.62-37.15-36.21,0-20.92,13.81-35.94,35.81-36.21C144.59,37,157.6,49,158.81,68.41L106.91,84c3.49,8.32,10.86,13.41,20.52,13.41C135.34,97.38,142.58,93.76,148.35,86.92ZM104.76,72.7v.13l39.16-11.67c-3.35-8-9.39-11.4-17.84-11.4C113.08,49.76,104.76,57.81,104.76,72.7Z"/><path d="M203.75,50.84c-12.34,0-21.19,9.26-21.19,22.8s8.85,22.8,21.19,22.8c9,0,16.23-3,21.06-8.58l8.58,8.58c-6.44,8.45-16.77,13.28-30.31,13.28-21.19,0-35.94-14.62-35.94-36.08s14.75-36.35,35.94-36.35C216,37.29,226,41.45,232.58,49l-8.45,9.92C219.17,53.79,212.33,50.7,203.75,50.84Z"/><path d="M314.41,73.37c0,21.59-15.16,36.35-37.15,36.35S240,95,240,73.37s15.16-36.08,37.29-36.08S314.41,51.91,314.41,73.37Zm-59,.27c0,13.81,9,23.2,21.86,23.2S299,87.45,299,73.64s-9-23.2-21.73-23.2S255.4,60,255.4,73.64Z"/><path d="M370.62,37.29V52c-14.35-.8-23.47,7.65-24.68,19.85v37.29H330.52V37.83h15.42V52C350.77,42.39,359.35,37.29,370.62,37.29Z"/><path d="M451.37,9.66v99.52H435.94V97c-5.1,8.31-13.68,12.88-25.08,12.88-20.52,0-34.2-14.89-34.2-36.62,0-21.46,13.82-36.08,33.93-36.08,11.53,0,20.12,4.69,25.35,13V9.66ZM435.94,73.77c0-13.82-9-23.47-21.86-23.47s-21.86,9.79-22,23.47c.14,13.55,9,23.2,22,23.2S435.94,87.32,435.94,73.77Z"/><path d="M542.58,37.83v71.35H527.29V97.11c-5.23,8.18-13.68,12.74-24.95,12.74-20.52,0-34.2-14.89-34.2-36.62,0-21.32,13.55-35.94,33.67-36.08,11.53-.13,20.25,4.43,25.48,12.74V37.83ZM527.29,76.32V71.09c-1.21-12.34-9.66-20.79-21.73-20.79-12.88,0-21.86,9.79-22,23.47.14,13.55,9,23.2,22,23.2C517.63,97,526.08,88.53,527.29,76.32Z"/><path d="M605.49,37.29V52c-14.35-.8-23.47,7.65-24.68,19.85v37.29H565.39V37.83h15.42V52C585.64,42.39,594.23,37.29,605.49,37.29Z"/><path d="M633.53,37.83v71.35H618.24V37.83Z"/><path d="M640,12.37C640,5.54,633.75,0,626,0s-14,5.54-14,12.37c0,6.24,5.21,11.4,12,12.25h0s0,4.51,0,4.59c0,.4.28,1.2,1,1.2a1.51,1.51,0,0,0,1.11-.55l6.14-6.47h0C636.89,21.36,640,17.19,640,12.37Zm-14.1,9.18c-5.57,0-9.94-4-9.94-8.94S620.48,3.67,626,3.67s10.08,4,10.08,8.94a9,9,0,0,1-5.85,8.12c-1.19,1.17-3.5,3.74-3.78,4C626,24.75,626.81,21.55,625.9,21.55Z"/></svg>