<?xml version="1.0" encoding="utf-8"?>
<!-- Generator: Adobe Illustrator 22.1.0, SVG Export Plug-In . SVG Version: 6.00 Build 0)  -->
<svg version="1.1" id="Capa_1" xmlns="http://www.w3.org/2000/svg" xmlns:xlink="http://www.w3.org/1999/xlink" x="0px" y="0px"
	 viewBox="0 0 48 48" style="enable-background:new 0 0 48 48;" xml:space="preserve">
<style type="text/css">
	.st0{fill:url(#SVGID_1_);}
	.st1{fill:url(#SVGID_2_);}
	.st2{fill:url(#SVGID_3_);}
	.st3{fill:url(#SVGID_4_);}
</style>
<g>
	<linearGradient id="SVGID_1_" gradientUnits="userSpaceOnUse" x1="1.5817" y1="45.3471" x2="24.5166" y2="22.4122">
		<stop  offset="5.000000e-02" style="stop-color:#391285"/>
		<stop  offset="0.7" style="stop-color:#FF4343"/>
	</linearGradient>
	<path class="st0" d="M16.7,31.4c3-1.4,5.1-4.5,5.1-8c0-4.9-4-8.8-8.8-8.8s-8.8,4-8.8,8.8c0,3.5,2.1,6.6,5.1,8
		c-3.3,1.4-5.6,4.7-5.6,8.5v7.3c0,0.4,0.4,0.8,0.8,0.8h17c0.4,0,0.8-0.4,0.8-0.8v-7.3C22.3,36.1,20,32.8,16.7,31.4z M10.2,32.8
		l1.7,2l-2.2,1.6l-0.8-2.9C9.3,33.2,9.7,33,10.2,32.8z M13,32.2c0.4,0,0.8,0,1.2,0.1L13,33.7l-1.2-1.3C12.3,32.2,12.6,32.2,13,32.2z
		 M15.9,32.8c0.4,0.2,0.9,0.4,1.3,0.7l-0.8,2.9l-2.2-1.6L15.9,32.8z M5.8,23.4c0-4,3.2-7.2,7.2-7.2s7.2,3.2,7.2,7.2S17,30.6,13,30.6
		S5.8,27.4,5.8,23.4z M5.3,39.9c0-2.1,0.9-4,2.2-5.4l0.9,3.4c0.1,0.3,0.3,0.5,0.5,0.5c0.1,0,0.2,0,0.3,0c0.2,0,0.3-0.1,0.5-0.2
		l2.5-1.9v10H5.3V39.9z M20.8,46.4h-6.9v-10l2.5,1.9c0.1,0.1,0.3,0.2,0.5,0.2c0.1,0,0.2,0,0.3,0c0.2-0.1,0.4-0.3,0.5-0.5l0.9-3.4
		c1.4,1.4,2.2,3.3,2.2,5.4L20.8,46.4L20.8,46.4z M18.8,23.9c-0.1-0.2-0.2-0.4-0.4-0.5c-0.2-0.1-0.4-0.1-0.6-0.1l-4.9,1.4
		c-0.2,0.1-0.4,0.2-0.5,0.4s-0.1,0.4-0.1,0.6c0.4,1.5,1.8,2.5,3.2,2.5c0.3,0,0.6,0,0.9-0.1c0.9-0.2,1.6-0.8,2-1.6S19,24.7,18.8,23.9
		z M17.1,25.6c-0.2,0.4-0.6,0.7-1.1,0.8c-0.7,0.2-1.4,0-1.8-0.5l3.1-0.8C17.3,25.3,17.2,25.5,17.1,25.6z M15.8,39.1
		c-0.1-0.3-0.4-0.5-0.8-0.5c-0.3,0-0.6,0.2-0.7,0.5c-0.1,0.3,0,0.6,0.2,0.8c0.2,0.2,0.6,0.3,0.9,0.1C15.8,39.9,15.9,39.5,15.8,39.1
		C15.8,39.1,15.8,39.2,15.8,39.1z M17,21.8c0.7,0,1-0.9,0.5-1.4c-0.3-0.3-0.7-0.3-1-0.1c-0.3,0.2-0.4,0.5-0.3,0.8
		C16.3,21.5,16.6,21.8,17,21.8z M12.5,22.7c0.5-0.5,0.1-1.4-0.6-1.3c-0.7,0-1,0.9-0.5,1.4C11.7,23,12.2,23,12.5,22.7
		C12.6,22.5,12.4,22.7,12.5,22.7z"/>
	<g>
		<linearGradient id="SVGID_2_" gradientUnits="userSpaceOnUse" x1="22.1318" y1="18.0357" x2="41.3314" y2="-1.1639">
			<stop  offset="5.000000e-02" style="stop-color:#FF4343"/>
			<stop  offset="0.7" style="stop-color:#F7931E"/>
		</linearGradient>
		<path class="st1" d="M41.3,0H22.4c-1.6,0-3,1.3-3,3v10.7c0,1.6,1.3,3,3,3h1.3v2.6c0,0.3,0.2,0.6,0.4,0.7c0.1,0.1,0.2,0.1,0.4,0.1
			c0.1,0,0.3,0,0.4-0.1l5.2-3.3h11.2c1.6,0,3-1.3,3-3V3C44.2,1.3,42.9,0,41.3,0z M42.7,13.7c0,0.8-0.6,1.4-1.4,1.4H29.9
			c-0.1,0-0.3,0-0.4,0.1l-4.2,2.6v-2c0-0.4-0.4-0.8-0.8-0.8h-2.1c-0.8,0-1.4-0.6-1.4-1.4V3c0-0.8,0.6-1.4,1.4-1.4h18.9
			c0.8,0,1.4,0.6,1.4,1.4V13.7z"/>
		<linearGradient id="SVGID_3_" gradientUnits="userSpaceOnUse" x1="28.065" y1="10.3222" x2="35.6233" y2="2.7639">
			<stop  offset="5.000000e-02" style="stop-color:#FF4343"/>
			<stop  offset="0.7" style="stop-color:#F7931E"/>
		</linearGradient>
		<path class="st2" d="M38.3,5.8H25.4c-0.4,0-0.8,0.4-0.8,0.8s0.4,0.8,0.8,0.8h12.9c0.4,0,0.8-0.4,0.8-0.8S38.7,5.8,38.3,5.8z"/>
		<linearGradient id="SVGID_4_" gradientUnits="userSpaceOnUse" x1="28.065" y1="14.0958" x2="35.6233" y2="6.5375">
			<stop  offset="5.000000e-02" style="stop-color:#FF4343"/>
			<stop  offset="0.7" style="stop-color:#F7931E"/>
		</linearGradient>
		<path class="st3" d="M38.3,9.5H25.4c-0.4,0-0.8,0.4-0.8,0.8s0.4,0.8,0.8,0.8h12.9c0.4,0,0.8-0.4,0.8-0.8S38.7,9.5,38.3,9.5z"/>
	</g>
</g>
</svg>
