<?xml version="1.0" encoding="utf-8"?>
<!-- Generator: Adobe Illustrator 22.1.0, SVG Export Plug-In . SVG Version: 6.00 Build 0)  -->
<svg version="1.1" id="Capa_1" xmlns="http://www.w3.org/2000/svg" xmlns:xlink="http://www.w3.org/1999/xlink" x="0px" y="0px"
	 viewBox="0 0 48 48" style="enable-background:new 0 0 48 48;" xml:space="preserve">
<style type="text/css">
	.st0{fill:url(#SVGID_1_);}
	.st1{fill:url(#SVGID_2_);}
	.st2{fill:url(#SVGID_3_);}
	.st3{fill:url(#SVGID_4_);}
	.st4{fill:url(#SVGID_5_);}
</style>
<g>
	<g>
		<linearGradient id="SVGID_1_" gradientUnits="userSpaceOnUse" x1="24.9476" y1="45.6428" x2="28.2549" y2="48.95">
			<stop  offset="0" style="stop-color:#391285"/>
			<stop  offset="0.25" style="stop-color:#FF4343"/>
		</linearGradient>
		<path class="st0" d="M29.6,47.3c0-0.4-0.3-0.7-0.7-0.7H24V48h4.9C29.3,48,29.6,47.7,29.6,47.3z"/>
		<linearGradient id="SVGID_2_" gradientUnits="userSpaceOnUse" x1="14.3106" y1="9.6871" x2="46.2212" y2="41.5978">
			<stop  offset="0" style="stop-color:#391285"/>
			<stop  offset="0.25" style="stop-color:#FF4343"/>
		</linearGradient>
		<path class="st1" d="M38.9,33.4c-0.4-1-1.2-1.8-2.3-2.4c-0.2-0.1-6.3-2.2-6.3-2.2l-1.5-1h1.5c2.9,0,5.3-2.4,5.3-5.3V18
			c0.6-0.8,0.6-1.9,0-2.7c-0.2-1.5,0.9-7.4-3.1-11.6C30.4,1.2,27.2,0,24,0v1.4c2.7,0,5.4,1,7.6,3.3c3.3,3.6,2.6,8.7,2.7,9.6
			c-0.4-0.1-0.7-0.2-1.1-0.2v-0.4c0-0.9-0.6-1.6-1.4-1.9c-1.1-0.4-1.8-1.7-2-2.2c-0.2-0.5-0.7-0.8-1.2-0.9c-2.2-0.3-3.4-0.1-4.6,0.5
			v1.6c1.2-0.7,2.2-1,4.4-0.7c0,0,0.1,0,0.1,0.1c0.4,0.9,1.3,2.5,2.9,3c0.3,0.1,0.4,0.3,0.4,0.6v0.8L30.9,15
			c-0.3-0.5-0.9-0.8-1.5-0.8h-3.2c-0.8,0-1.4,0.5-1.7,1.1H24v1.4h0.4v0.7c0,1.4,1.1,2.5,2.5,2.5h1.8c1.4,0,2.5-1.1,2.5-2.5v-1
			l0.5-0.3c0,1.5,0.1,2.6-0.1,3.7c0,0,0,0.2,0,0.1c0,0.2-0.1,0.6-0.1,0.6c-0.5,2-1.9,3.3-1.8,3.2c-1.4,1.5-3.4,2.4-5.6,2.5
			c0,0,0,0,0,0v1.4c0,0,0,0,0,0c1,0,1.9-0.2,2.3-0.3c0.2-0.1,0.4-0.1,0.9-0.3c0,0,0,0.8,0,0.8L24,31.3l0,0v1.9c0,0,0,0,0,0l0.8,0.6
			l-0.3,0.6H24v1.4h0.4l0.5,1.6L24,39.2l0,0v2c0,0,0,0,0,0c0.3,0,0.5-0.1,0.7-0.4c0.1-0.1-0.3,0.6,5.7-10.5c0.1,0,1,0.3,1.1,0.4
			l-5.7,10.5c-0.4,0.7-1.1,1-1.8,1v1.4c1.2,0,2.3-0.6,3-1.8l5.8-10.7c2.5,0.9,2.9,1,2.9,1c0,0,0,0,0.1,0c0.1,0,0.1,0.1,0.1,0.1
			c0.6,0.3,1.1,0.7,1.4,1.2c0.4,0.7,0.3,0.3,2.5,11.4c0.2,1.2-0.4,1.7-1.5,1.7h-3.5v-6.4c0-0.4-0.3-0.7-0.7-0.7
			c-0.4,0-0.7,0.3-0.7,0.7v6.4h-1.3c-0.4,0-0.7,0.3-0.7,0.7c0,0.4,0.3,0.7,0.7,0.7h6.2c1.8,0,2.9-1,2.9-2.6c0-0.3,0-0.6,0-0.7
			C39.1,33.7,39.2,34.1,38.9,33.4z M29.9,17.4c0,0.6-0.5,1.1-1.1,1.1h-1.8c-0.6,0-1.1-0.5-1.1-1.1V16h0c0-0.2,0.2-0.4,0.4-0.4h3.2
			c0.2,0,0.4,0.2,0.4,0.4V17.4z M33.2,15.5c1.3-0.1,2,1.2,1.2,2c-0.3,0.3-0.7,0.4-1.2,0.4V15.5z M28.6,26.3c0,0,1-0.6,2-1.6
			c0,0,0,0,0,0c1.3-1.4,2.2-3.3,2.4-5.3c0.3,0,0.8,0,1.2-0.2v3.4h0c0,2.2-1.8,3.9-3.9,3.9h-1.8V26.3z M25.9,35.7l-0.2-0.5l0.3-0.5
			l0.4,0.3L25.9,35.7z M27,33.7c-0.2-0.1-1.7-1.3-1.9-1.4l3-3.3l1.1,0.8C28.4,31,27.4,32.8,27,33.7z"/>
	</g>
	<g>
		<linearGradient id="SVGID_3_" gradientUnits="userSpaceOnUse" x1="20.0977" y1="41.2153" x2="22.2592" y2="39.0539">
			<stop  offset="0" style="stop-color:#4C18B2"/>
			<stop  offset="0.75" style="stop-color:#391285"/>
		</linearGradient>
		<path class="st2" d="M22.2,41.3l-2.6-4.7c-0.2-0.3-0.6-0.5-1-0.3c-0.3,0.2-0.5,0.6-0.3,1l2.6,4.7c0.6,1.2,1.8,1.8,3,1.8v-1.4
			C23.3,42.3,22.6,41.9,22.2,41.3z"/>
		<linearGradient id="SVGID_4_" gradientUnits="userSpaceOnUse" x1="17.2273" y1="4.9691" x2="23.0968" y2="-0.9004">
			<stop  offset="0" style="stop-color:#4C18B2"/>
			<stop  offset="0.75" style="stop-color:#391285"/>
		</linearGradient>
		<path class="st3" d="M17.1,3.9c2-1.7,4.5-2.5,6.9-2.5V0c-1.9,0-3.8,0.4-5.6,1.3l0,0c-0.1,0-1.1,0.5-2.3,1.5
			c-0.3,0.3-0.3,0.7-0.1,1C16.3,4.1,16.8,4.1,17.1,3.9z"/>
		<linearGradient id="SVGID_5_" gradientUnits="userSpaceOnUse" x1="2.9062" y1="42.7263" x2="30.2579" y2="15.3746">
			<stop  offset="0" style="stop-color:#4C18B2"/>
			<stop  offset="0.75" style="stop-color:#391285"/>
		</linearGradient>
		<path class="st4" d="M24,48v-1.4h-9.5v-6.4c0-0.4-0.3-0.7-0.7-0.7s-0.7,0.3-0.7,0.7v6.4H9.6c-1.1,0-1.6-0.5-1.5-1.7
			c1.9-9.4,1.9-10.2,2.2-10.9c0.1-0.1,0.4-1.2,1.8-1.8c0.2-0.1,0.1,0,0.6-0.2c0,0-0.1,0,2.4-0.8l1.7,3.1c0.2,0.3,0.6,0.5,1,0.3
			c0.3-0.2,0.5-0.6,0.3-1l-1.6-2.9l1.1-0.4c0.5,1,5.1,9.4,5.6,10.4c0.2,0.3,0.5,0.5,0.8,0.5v-2l-0.9-1.7l0.5-1.6H24v-1.4h-0.5
			l-0.3-0.6l0.8-0.6v-1.9l-3.2-3.6v-0.7c1.1,0.4,2.1,0.5,3.2,0.5v-1.4c0,0-0.1,0-0.1,0c0,0-0.1,0-0.1,0c-1.2,0-2.1-0.3-2.1-0.3
			c-1.4-0.4-2.7-1.2-3.8-2.4c-2.3-2.7-1.8-5.2-1.9-7.3l0.5,0.3v1c0,1.4,1.1,2.5,2.5,2.5h1.8c1.4,0,2.5-1.1,2.5-2.5v-0.7H24v-1.4
			h-0.8c-0.3-0.7-0.9-1.1-1.7-1.1h-3.2c-0.6,0-1.2,0.3-1.5,0.8L16,14.5c0.1-1.2,1.2-2.8,2.3-2.7c1.6,0.2,3.6-0.6,5.6-1.1V9.1
			c-2,0.6-3.9,1.5-5.4,1.3c-1.9-0.3-3.6,1.8-3.9,3.6c-0.5,0-0.9,0.1-1.3,0.2c0-2.4-0.3-5.1,1.7-8.1c0.2-0.3,0.1-0.8-0.2-1
			c-0.3-0.2-0.8-0.1-1,0.2c-2.7,4.1-1.7,7.8-1.9,10.1c-0.9,1.8,0.6,3.8,2.7,3.7c0.3,3.3,2.4,5.3,2.5,5.3l0,0c0.4,0.3,1,1.1,2.3,1.8
			v1.2l-1.8,1.2c-6.9,2.4-6.2,2.1-6.7,2.4c-1.1,0.6-1.8,1.6-2.1,2.9c-0.1,0.2,0-0.2-2.1,10.5c0,0.2-0.1,0.6,0,1
			C6.9,47.2,7.9,48,9.6,48L24,48z M17.9,16c0-0.2,0.2-0.4,0.4-0.4h3.2c0.2,0,0.4,0.2,0.4,0.4v1.4c0,0.6-0.5,1.1-1.1,1.1H19
			c-0.6,0-1.1-0.5-1.1-1.1V16z M14.6,17.9c-0.8,0-1.5-0.5-1.5-1.2c0-0.7,0.7-1.3,1.5-1.2V17.9z M22.1,35.7l-0.4-0.8l0.4-0.3l0.3,0.5
			L22.1,35.7z M20,29l3,3.3c-0.2,0.1-1.8,1.3-1.9,1.4l-2.1-4L20,29z"/>
	</g>
</g>
</svg>
