<?xml version="1.0" encoding="utf-8"?>
<!-- Generator: Adobe Illustrator 22.1.0, SVG Export Plug-In . SVG Version: 6.00 Build 0)  -->
<svg version="1.1" id="Capa_1" xmlns="http://www.w3.org/2000/svg" xmlns:xlink="http://www.w3.org/1999/xlink" x="0px" y="0px"
	 viewBox="0 0 48 48" style="enable-background:new 0 0 48 48;" xml:space="preserve">
<style type="text/css">
	.st0{fill:url(#SVGID_1_);}
	.st1{fill:url(#SVGID_2_);}
</style>
<g>
	<linearGradient id="SVGID_1_" gradientUnits="userSpaceOnUse" x1="5.6849" y1="39.2435" x2="25.3667" y2="5.1535">
		<stop  offset="0.1244" style="stop-color:#391285"/>
		<stop  offset="0.75" style="stop-color:#FF4343"/>
	</linearGradient>
	<path class="st0" d="M22.6,41.2C22.6,41.2,22.6,41.2,22.6,41.2V23.1V8.3V5.9c0-1.9-1.4-3.6-3.3-4c-1.2-0.2-2.6-0.1-4,0.3
		c0,0,0,0,0,0c-1.7,0.6-3.2,1.9-4,3.5c-0.2,0-0.4,0-0.5,0C8.1,5.7,5.7,7,4.2,9.1c-1.6,2.3-1.8,5.4-0.5,7.9c-2.3,1.4-3.6,3.8-3.6,6.5
		c0,2.8,1.5,5.3,4,6.7c-1,1.9-1.1,4.2-0.2,6.1c0,0,0,0,0,0c1.4,3,4.1,4.6,7.3,4.5c1.2,2.7,3.7,4.2,6.8,4.3c0,0,0,0,0,0
		c0.5,0,1.1-0.1,1.9-0.3c0.8-0.2,1.5-0.7,2-1.4c0.1,0,0.8,0,0.8-0.9V41.2z M20.8,5.9v17.6l0,17.5c0,0.9-0.6,1.8-1.5,2.1
		c-0.7,0.2-1.1,0.3-1.3,0.3c-2.6-0.1-4.5-1.4-5.4-3.8c-0.1-0.4-0.5-0.6-0.8-0.6c0,0-0.1,0-0.1,0c-2.7,0.3-4.9-0.9-6.1-3.4
		c-0.6-1.4-0.5-3.1,0.1-4.5c0.6,0.3,1.2,0.5,1.9,0.5c0,0,0.1,0,0.1,0c1,0,2-0.4,2.7-1.1c0.4-0.4,0.4-0.9,0-1.3
		c-0.4-0.4-0.9-0.4-1.3,0c-0.4,0.4-0.9,0.6-1.5,0.6c-0.6,0-1.1-0.2-1.5-0.7c0,0,0,0,0,0c0,0,0,0,0,0c0,0,0,0,0,0c0,0,0,0,0,0
		c0,0,0,0-0.1,0c0,0,0,0,0,0c0,0-0.1,0-0.1,0c-2.3-0.9-3.8-3.1-3.8-5.5c0-1.9,0.9-3.6,2.5-4.7c0.6,1.4,2,2.4,3.6,2.4
		c0.5,0,0.9-0.4,0.9-0.9c0-0.5-0.4-0.9-0.9-0.9c-1.1,0-2-0.9-2.1-2c0,0,0,0,0,0c0,0,0,0,0,0c0,0,0,0,0-0.1c0,0,0,0,0,0
		c0,0,0,0,0-0.1c0,0,0,0,0,0c0,0,0,0,0-0.1c0,0,0,0,0,0c0,0,0,0,0-0.1c0,0,0,0,0,0c0,0,0,0,0-0.1c0,0,0,0,0,0c-1.4-2-1.4-4.7,0-6.7
		c1.1-1.6,3-2.6,5.1-2.6c0.1,0,0.2,0,0.3,0c0.4,1.7,2,3.1,3.8,3.1c0.5,0,0.9-0.4,0.9-0.9s-0.4-0.9-0.9-0.9c-1.1,0-2-0.8-2.1-1.9
		c0.6-1.3,1.7-2.4,3.2-2.9C17,3.6,18.1,3.6,19,3.7C20,3.9,20.8,4.8,20.8,5.9C20.8,5.9,20.8,5.9,20.8,5.9z M13,35.8
		c-0.5,0-0.9-0.4-0.9-0.9c0-0.5,0.4-0.9,0.9-0.9c2.2,0,4-1.8,4-4c0-0.5,0.4-0.9,0.9-0.9s0.9,0.4,0.9,0.9
		C18.8,33.2,16.2,35.8,13,35.8z M12.2,22.1c-0.5,0-0.9-0.4-0.9-0.9c0-0.5,0.4-0.9,0.9-0.9c2.2,0,4-1.8,4-4c0-0.5,0.4-0.9,0.9-0.9
		c0.5,0,0.9,0.4,0.9,0.9C18,19.5,15.4,22.1,12.2,22.1z"/>
	<linearGradient id="SVGID_2_" gradientUnits="userSpaceOnUse" x1="35.3195" y1="43.3848" x2="35.3195" y2="3.5566">
		<stop  offset="0.1244" style="stop-color:#391285"/>
		<stop  offset="0.75" style="stop-color:#FF4343"/>
	</linearGradient>
	<path class="st1" d="M44.7,7.8C42.3,5,38.8,3.6,34.2,3.6c-2,0-4.1,0.5-6.2,1.5c-1.5,0.7-2.7,1.8-3.7,3.2c0,0-1.8,2.5-1.8,4.1
		c0,1,0,21.8,0,28.9c0,2.3,0,2.2,1,2.2c0.1,0,0.1,0,0.2,0c0.4-0.1,9.5-3.1,18-11c4.1-3.8,6.3-8.5,6.3-13.7
		C48.1,14.2,46.9,10.4,44.7,7.8z M40.6,31.1c-4.7,4.3-9.6,7.1-13.1,8.8V18.1c0-0.5-0.4-0.9-0.9-0.9c-0.5,0-0.9,0.4-0.9,0.9v22.6
		c-0.5,0.2-1,0.4-1.3,0.5v-0.1c0-0.1,0-0.1,0-0.2V23.1l0-9.1c0-3.1,1.8-5.9,4.5-7.3c1.8-0.9,3.6-1.3,5.4-1.3c10.5,0,12,8.4,12,13.3
		C46.3,23.4,44.3,27.6,40.6,31.1z M26.7,15.2c-0.1,0-0.1,0-0.2,0c-0.1,0-0.1,0-0.2-0.1c-0.1,0-0.1-0.1-0.2-0.1c0,0-0.1-0.1-0.1-0.1
		c0,0-0.1-0.1-0.1-0.1c0,0-0.1-0.1-0.1-0.2c0-0.1,0-0.1-0.1-0.2c0-0.1,0-0.1,0-0.2s0-0.1,0-0.2c0-0.1,0-0.1,0.1-0.2
		c0-0.1,0.1-0.1,0.1-0.2c0,0,0.1-0.1,0.1-0.1c0,0,0.1-0.1,0.1-0.1c0,0,0.1-0.1,0.2-0.1c0.1,0,0.1,0,0.2-0.1c0.1,0,0.2,0,0.4,0
		c0.1,0,0.1,0,0.2,0.1c0.1,0,0.1,0.1,0.2,0.1c0,0,0.1,0.1,0.1,0.1c0,0,0.1,0.1,0.1,0.1c0,0,0.1,0.1,0.1,0.2c0,0.1,0,0.1,0.1,0.2
		c0,0.1,0,0.1,0,0.2s0,0.1,0,0.2c0,0.1,0,0.1-0.1,0.2c0,0.1-0.1,0.1-0.1,0.2c0,0-0.1,0.1-0.1,0.1c0,0-0.1,0.1-0.1,0.1
		c0,0-0.1,0.1-0.2,0.1c-0.1,0-0.1,0-0.2,0.1C26.8,15.2,26.7,15.2,26.7,15.2z"/>
</g>
</svg>
