<?xml version="1.0" encoding="utf-8"?>
<!-- Generator: Adobe Illustrator 22.1.0, SVG Export Plug-In . SVG Version: 6.00 Build 0)  -->
<svg version="1.1" id="Capa_1" xmlns="http://www.w3.org/2000/svg" xmlns:xlink="http://www.w3.org/1999/xlink" x="0px" y="0px"
	 viewBox="0 0 48 48" style="enable-background:new 0 0 48 48;" xml:space="preserve">
<style type="text/css">
	.st0{fill:url(#SVGID_1_);}
</style>
<g>
	<linearGradient id="SVGID_1_" gradientUnits="userSpaceOnUse" x1="0" y1="24" x2="48" y2="24">
		<stop  offset="0" style="stop-color:#000000"/>
		<stop  offset="0.4" style="stop-color:#4C18B2"/>
		<stop  offset="0.9" style="stop-color:#FBB03B"/>
	</linearGradient>
	<path class="st0" d="M40.7,6.7c0.4,0,0.7,0.3,0.7,0.7c0,0.4-0.3,0.7-0.7,0.7h-0.1c-0.4,0-0.7-0.3-0.7-0.7C39.9,7,40.3,6.7,40.7,6.7
		L40.7,6.7z M38.3,6.7c-0.4,0-0.7,0.3-0.7,0.7c0,0.4,0.3,0.7,0.7,0.7h0.1c0.4,0,0.7-0.3,0.7-0.7C39.1,7,38.8,6.7,38.3,6.7L38.3,6.7z
		 M48,45.5c0,0.4-0.3,0.7-0.7,0.7h-4.2c-0.3,1.1-1.3,1.8-2.4,1.8c-1.1,0-2.1-0.8-2.4-1.8H26.4C26.1,47.2,25.1,48,24,48
		s-2.1-0.8-2.4-1.8H9.8C9.5,47.2,8.5,48,7.4,48s-2.1-0.8-2.4-1.8H0.7c-0.4,0-0.7-0.3-0.7-0.7c0-0.4,0.3-0.7,0.7-0.7h4.2
		c0.2-0.8,0.9-1.5,1.7-1.7V14.7C2.9,14.3,0,11.2,0,7.4C0,3.3,3.3,0,7.4,0s7.4,3.3,7.4,7.4c0,1.4-0.4,2.7-1.1,3.8
		c-0.2,0.3-0.6,0.4-1,0.2c-0.3-0.2-0.4-0.6-0.2-1c0.6-0.9,0.9-2,0.9-3.1c0-3.3-2.7-6-6-6s-6,2.7-6,6c0,3.3,2.7,6,6,6
		c1.3,0,2.5-0.4,3.6-1.2c0.3-0.2,0.8-0.2,1,0.1c0.2,0.3,0.2,0.8-0.1,1c-1.1,0.8-2.4,1.3-3.7,1.4v28.4c0.8,0.2,1.5,0.9,1.7,1.7h11.8
		c0.2-0.8,0.9-1.5,1.7-1.7V28.3c-3.7-0.4-6.7-3.5-6.7-7.3c0-3.6,2.5-6.6,6-7.2c0.4-0.1,0.7,0.2,0.8,0.6c0.1,0.4-0.2,0.7-0.6,0.8
		c-2.8,0.5-4.9,3-4.9,5.9c0,3.3,2.7,6,6,6s6-2.7,6-6c0-2.9-2.1-5.4-5-5.9c-0.4-0.1-0.6-0.4-0.6-0.8c0.1-0.4,0.4-0.6,0.8-0.6
		c1.7,0.3,3.3,1.2,4.4,2.5c1.1,1.3,1.8,3,1.8,4.8c0,3.8-2.9,7-6.7,7.3v14.7c0.8,0.2,1.5,0.9,1.7,1.7h11.8c0.2-0.8,0.9-1.5,1.7-1.7
		V14.7c-3.7-0.4-6.7-3.5-6.7-7.3c0-4.1,3.3-7.4,7.4-7.4c1.6,0,3.1,0.5,4.4,1.5c0.3,0.2,0.4,0.7,0.1,1c-0.2,0.3-0.7,0.4-1,0.1
		c-1-0.8-2.3-1.2-3.6-1.2c-3.3,0-6,2.7-6,6c0,3.3,2.7,6,6,6c3.3,0,6-2.7,6-6c0-1.1-0.3-2.3-0.9-3.2c-0.2-0.3-0.1-0.8,0.2-1
		c0.3-0.2,0.8-0.1,1,0.2c0.8,1.2,1.2,2.6,1.2,4c0,3.8-2.9,7-6.7,7.3v28.4c0.8,0.2,1.5,0.9,1.7,1.7h4.2C47.7,44.8,48,45.1,48,45.5z
		 M8.5,45.5c0-0.6-0.5-1.1-1.1-1.1s-1.1,0.5-1.1,1.1c0,0.6,0.5,1.1,1.1,1.1S8.5,46.1,8.5,45.5z M25.1,45.5c0-0.6-0.5-1.1-1.1-1.1
		c-0.6,0-1.1,0.5-1.1,1.1c0,0,0,0,0,0c0,0,0,0,0,0c0,0.6,0.5,1.1,1.1,1.1C24.6,46.6,25.1,46.1,25.1,45.5z M41.8,45.5
		c0-0.6-0.5-1.1-1.1-1.1c-0.6,0-1.1,0.5-1.1,1.1c0,0.6,0.5,1.1,1.1,1.1C41.3,46.6,41.8,46.1,41.8,45.5z M6,8C5.6,8,5.3,8.3,5.3,8.7
		c0,0.4,0.3,0.7,0.7,0.7h2.7c0.4,0,0.7-0.3,0.7-0.7C9.4,8.3,9.1,8,8.7,8H6z M22.6,21.7c-0.4,0-0.7,0.3-0.7,0.7
		c0,0.4,0.3,0.7,0.7,0.7h2.7c0.4,0,0.7-0.3,0.7-0.7c0-0.4-0.3-0.7-0.7-0.7H22.6z M10.3,6c0-0.4-0.3-0.7-0.7-0.7H5.1
		C4.7,5.3,4.4,5.6,4.4,6c0,0.4,0.3,0.7,0.7,0.7h4.6C10,6.7,10.3,6.4,10.3,6z M27,19.6c0-0.4-0.3-0.7-0.7-0.7h-4.6
		c-0.4,0-0.7,0.3-0.7,0.7s0.3,0.7,0.7,0.7h4.6C26.7,20.4,27,20,27,19.6z M42.9,6.7c-0.4,0-0.7,0.3-0.7,0.7c0,0.4,0.3,0.7,0.7,0.7H43
		c0.4,0,0.7-0.3,0.7-0.7C43.7,7,43.3,6.7,42.9,6.7L42.9,6.7z"/>
</g>
</svg>
