<?xml version="1.0" encoding="UTF-8" standalone="no"?>
<svg
   xmlns:dc="http://purl.org/dc/elements/1.1/"
   xmlns:cc="http://creativecommons.org/ns#"
   xmlns:rdf="http://www.w3.org/1999/02/22-rdf-syntax-ns#"
   xmlns:svg="http://www.w3.org/2000/svg"
   xmlns="http://www.w3.org/2000/svg"
   xmlns:sodipodi="http://sodipodi.sourceforge.net/DTD/sodipodi-0.dtd"
   xmlns:inkscape="http://www.inkscape.org/namespaces/inkscape"
   id="Capa_1"
   data-name="Capa 1"
   viewBox="0 0 643.55 113.74"
   version="1.1"
   inkscape:version="0.91 r13725"
   sodipodi:docname="Recordari white.svg"
   width="643.54999"
   height="113.74">
  <metadata
     id="metadata31">
    <rdf:RDF>
      <cc:Work
         rdf:about="">
        <dc:format>image/svg+xml</dc:format>
        <dc:type
           rdf:resource="http://purl.org/dc/dcmitype/StillImage" />
        <dc:title>Recordari white</dc:title>
      </cc:Work>
    </rdf:RDF>
  </metadata>
  <sodipodi:namedview
     pagecolor="#ffffff"
     bordercolor="#666666"
     borderopacity="1"
     objecttolerance="10"
     gridtolerance="10"
     guidetolerance="10"
     inkscape:pageopacity="0"
     inkscape:pageshadow="2"
     inkscape:window-width="1440"
     inkscape:window-height="837"
     id="namedview29"
     showgrid="false"
     fit-margin-top="0"
     fit-margin-left="0"
     fit-margin-right="0"
     fit-margin-bottom="0"
     inkscape:zoom="0.58892084"
     inkscape:cx="321.77499"
     inkscape:cy="56.880019"
     inkscape:window-x="-8"
     inkscape:window-y="-8"
     inkscape:window-maximized="1"
     inkscape:current-layer="Capa_1" />
  <defs
     id="defs3" />
  <title
     id="title7">Recordari white</title>
  <path
     class="cls-1"
     d="M 59.55,113 42.38,84.61 c -1.34,0.13 -2.82,0.13 -4.29,0.13 l -22.26,0 0,28.26 -15.83,0 0,-93.84 38.09,0 c 24,0 37.82,11.67 37.82,32.06 0,15 -7,25.62 -19.45,30.45 L 77.52,113 Z M 38.09,70.53 c 14.48,0 22.8,-6.17 22.8,-18.91 0,-12.34 -8.32,-18.24 -22.8,-18.24 l -22.26,0 0,37.15 z"
     id="path9"
     style="fill:#ffffff;fill-opacity:1"
     inkscape:connector-curvature="0" />
  <path
     class="cls-1"
     d="m 148.35,90.78 9,8.32 c -8,9.79 -18.51,14.48 -30.85,14.48 -22,0 -37.15,-14.62 -37.15,-36.21 0,-20.92 13.81,-35.94 35.81,-36.21 19.45,-0.27 32.46,11.67 33.67,31.12 l -51.9,15.56 c 3.49,8.32 10.86,13.41 20.52,13.41 7.89,-0.01 15.13,-3.63 20.9,-10.47 z m -43.59,-14.22 0,0.13 L 143.92,65 c -3.35,-8 -9.39,-11.4 -17.84,-11.4 -13,0.03 -21.32,8.08 -21.32,22.96 z"
     id="path11"
     style="fill:#ffffff;fill-opacity:1"
     inkscape:connector-curvature="0" />
  <path
     class="cls-1"
     d="m 203.75,54.7 c -12.34,0 -21.19,9.26 -21.19,22.8 0,13.54 8.85,22.8 21.19,22.8 9,0 16.23,-3 21.06,-8.58 l 8.58,8.58 c -6.44,8.45 -16.77,13.28 -30.31,13.28 -21.19,0 -35.94,-14.62 -35.94,-36.08 0,-21.46 14.75,-36.35 35.94,-36.35 12.88,0 22.93,4.16 29.51,11.67 l -8.45,9.92 c -4.97,-5.09 -11.81,-8.17 -20.39,-8.04 z"
     id="path13"
     style="fill:#ffffff;fill-opacity:1"
     inkscape:connector-curvature="0" />
  <path
     class="cls-1"
     d="m 314.41,77.24 c 0,21.59 -15.16,36.35 -37.15,36.35 -21.99,0 -37.26,-14.76 -37.26,-36.35 0,-21.59 15.16,-36.08 37.29,-36.08 22.13,0 37.12,14.62 37.12,36.08 z m -59,0.27 c 0,13.81 9,23.2 21.86,23.2 12.86,0 21.73,-9.39 21.73,-23.21 0,-13.82 -9,-23.2 -21.73,-23.2 -12.73,0 -21.87,9.52 -21.87,23.2 z"
     id="path15"
     style="fill:#ffffff;fill-opacity:1"
     inkscape:connector-curvature="0" />
  <path
     class="cls-1"
     d="m 370.62,41.16 0,14.75 c -14.35,-0.8 -23.47,7.65 -24.68,19.85 l 0,37.24 -15.42,0 0,-71.31 15.42,0 0,14.22 c 4.83,-9.66 13.41,-14.75 24.68,-14.75 z"
     id="path17"
     style="fill:#ffffff;fill-opacity:1"
     inkscape:connector-curvature="0" />
  <path
     class="cls-1"
     d="m 451.37,13.53 0,99.47 -15.43,0 0,-12.2 c -5.1,8.31 -13.68,12.88 -25.08,12.88 -20.52,0 -34.2,-14.89 -34.2,-36.62 0,-21.46 13.82,-36.08 33.93,-36.08 11.53,0 20.12,4.69 25.35,13 l 0,-40.45 z m -15.43,64.11 c 0,-13.82 -9,-23.47 -21.86,-23.47 -12.86,0 -21.86,9.79 -22,23.47 0.14,13.55 9,23.2 22,23.2 13,0 21.86,-9.66 21.86,-23.2 z"
     id="path19"
     style="fill:#ffffff;fill-opacity:1"
     inkscape:connector-curvature="0" />
  <path
     class="cls-1"
     d="m 542.58,41.69 0,71.31 -15.29,0 0,-12 c -5.23,8.18 -13.68,12.74 -24.95,12.74 -20.52,0 -34.2,-14.89 -34.2,-36.62 0,-21.32 13.55,-35.94 33.67,-36.08 11.53,-0.13 20.25,4.43 25.48,12.74 l 0,-12.09 z m -15.29,38.49 0,-5.18 c -1.21,-12.34 -9.66,-20.79 -21.73,-20.79 -12.88,0 -21.86,9.79 -22,23.47 0.14,13.55 9,23.2 22,23.2 12.07,-0.04 20.52,-8.49 21.73,-20.7 z"
     id="path21"
     style="fill:#ffffff;fill-opacity:1"
     inkscape:connector-curvature="0" />
  <path
     class="cls-1"
     d="m 605.49,41.16 0,14.75 c -14.35,-0.8 -23.47,7.65 -24.68,19.85 l 0,37.24 -15.42,0 0,-71.31 15.42,0 0,14.22 c 4.83,-9.66 13.42,-14.75 24.68,-14.75 z"
     id="path23"
     style="fill:#ffffff;fill-opacity:1"
     inkscape:connector-curvature="0" />
  <path
     class="cls-1"
     d="m 633.53,41.69 0,71.31 -15.29,0 0,-71.31 z"
     id="path25"
     style="fill:#ffffff;fill-opacity:1"
     inkscape:connector-curvature="0" />
  <path
     class="cls-1"
     d="M 643.55,15.52 C 643.55,6.95 635.71,0 626,0 c -9.71,0 -17.5,6.95 -17.5,15.52 0,7.83 6.54,14.3 15,15.36 l 0,0 c 0,0 0,5.66 0,5.76 0,0.51 0.35,1.51 1.32,1.51 a 1.89,1.89 0 0 0 1.39,-0.69 l 7.7,-8.11 0,0 c 5.74,-2.56 9.64,-7.79 9.64,-13.83 z M 625.87,27 c -7,0 -12.47,-5 -12.47,-11.21 0,-6.21 5.66,-11.19 12.6,-11.19 6.94,0 12.65,5 12.65,11.21 0,4.51 -3,8.41 -7.34,10.18 -1.49,1.46 -4.39,4.69 -4.74,5 C 625.95,31 627,27 625.87,27 Z"
     id="path27"
     style="fill:#ffffff;fill-opacity:1"
     inkscape:connector-curvature="0" />
</svg>
